<svg width="3994" height="2048" viewBox="0 0 3994 2048" fill="none" xmlns="http://www.w3.org/2000/svg">
<rect width="3993.39" height="2047.89" fill="#0A2ECB"/>
<mask id="mask0_627_2260" style="mask-type:luminance" maskUnits="userSpaceOnUse" x="163" y="81" width="3744" height="1885">
<path d="M3906.81 81.916H163.83V1965.16H3906.81V81.916Z" fill="white"/>
</mask>
<g mask="url(#mask0_627_2260)">
<path d="M3501.37 1317.87C3419.95 1317.87 3339.35 1294.75 3270.39 1252.64C3359.29 1111.46 3391.7 943.034 3361.79 779.564C3331.88 616.091 3242.14 469.13 3109.21 368.404C2976.27 267.678 2810.93 218.966 2643.93 233.002C2476.93 247.037 2322.39 322.169 2207.73 443.536C2093.91 564.902 2029.93 724.247 2028.27 891.02C2026.61 1056.97 2086.43 1217.97 2197.77 1341.81C2309.1 1465.65 2462.81 1544.91 2628.98 1562.25C2795.14 1579.59 2962.15 1535 3096.75 1437.58C3213.9 1522.62 3355.14 1568.03 3500.54 1568.85C3588.62 1568.85 3675.01 1552.34 3756.43 1519.32V1236.13C3682.5 1290.62 3592.77 1319.52 3500.54 1318.69L3501.37 1317.87ZM3080.96 1025.6C2980.43 917.439 2847.49 844.788 2702.09 818.368V1073.48C2731.17 1082.57 2759.42 1094.12 2786.01 1108.16C2841.67 1137.88 2889.86 1179.16 2927.25 1229.53C2861.62 1274.93 2782.69 1299.7 2702.92 1299.7C2623.99 1299.7 2547.55 1276.59 2481.91 1233.65C2416.28 1189.9 2365.6 1128.8 2334.85 1056.15C2304.95 983.491 2296.64 904.23 2312.42 827.45C2327.38 750.666 2365.6 680.489 2421.26 625.172C2476.93 569.855 2547.55 531.876 2624.82 517.016C2702.09 502.153 2781.85 509.584 2854.97 539.307C2928.08 569.03 2989.56 620.219 3033.6 685.442C3077.63 750.666 3100.9 827.45 3100.9 905.058C3100.9 946.337 3095.08 987.62 3081.79 1026.42L3080.96 1025.6Z" fill="white"/>
<path d="M797.772 933.954L552.669 281.715H304.246V1521.8C390.655 1477.21 479.555 1439.23 570.95 1407.86V895.978L744.598 1353.37C782.814 1342.64 821.034 1331.91 862.578 1322L1024.59 896.803V1283.19C1090.23 1269.16 1269.69 1239.43 1291.29 1236.13V280.89H1024.59L797.772 933.954Z" fill="white"/>
<path d="M1812.25 298.231C1774.03 321.348 1754.09 364.281 1740.8 405.561C1724.18 455.925 1711.72 507.114 1705.07 559.128C1705.07 559.953 1704.24 569.035 1700.09 569.035C1695.93 569.035 1696.76 562.428 1696.76 562.428V280.893H1425.91V1216.32C1519.79 1204.76 1610.36 1197.33 1696.76 1192.38V709.389C1696.76 692.879 1697.59 676.366 1700.09 659.853C1701.75 645.818 1707.56 632.608 1716.7 621.049C1721.69 615.27 1727.51 611.142 1734.15 607.839C1751.6 599.582 1770.71 594.629 1790.65 594.629C1823.05 593.804 1927.74 592.151 1927.74 592.151V278.416H1877.89C1855.45 278.416 1833.02 284.195 1813.08 294.928L1812.25 298.231Z" fill="white"/>
<path d="M3501.37 1317.87C3419.95 1317.87 3339.35 1294.75 3270.39 1252.64C3359.29 1111.46 3391.7 943.034 3361.79 779.564C3331.88 616.091 3242.14 469.13 3109.21 368.404C2976.27 267.678 2810.93 218.966 2643.93 233.002C2476.93 247.037 2322.39 322.169 2207.73 443.536C2093.91 564.902 2029.93 724.247 2028.27 891.02C2026.61 1056.97 2086.43 1217.97 2197.77 1341.81C2309.1 1465.65 2462.81 1544.91 2628.98 1562.25C2795.14 1579.59 2962.15 1535 3096.75 1437.58C3213.9 1522.62 3355.14 1568.03 3500.54 1568.85C3588.62 1568.85 3675.01 1552.34 3756.43 1519.32V1236.13C3682.5 1290.62 3592.77 1319.52 3500.54 1318.69L3501.37 1317.87ZM3080.96 1025.6C2980.43 917.439 2847.49 844.788 2702.09 818.368V1073.48C2731.17 1082.57 2759.42 1094.12 2786.01 1108.16C2841.67 1137.88 2889.86 1179.16 2927.25 1229.53C2861.62 1274.93 2782.69 1299.7 2702.92 1299.7C2623.99 1299.7 2547.55 1276.59 2481.91 1233.65C2416.28 1189.9 2365.6 1128.8 2334.85 1056.15C2304.95 983.491 2296.64 904.23 2312.42 827.45C2327.38 750.666 2365.6 680.489 2421.26 625.172C2476.93 569.855 2547.55 531.876 2624.82 517.016C2702.09 502.153 2781.85 509.584 2854.97 539.307C2928.08 569.03 2989.56 620.219 3033.6 685.442C3077.63 750.666 3100.9 827.45 3100.9 905.058C3100.9 946.337 3095.08 987.62 3081.79 1026.42L3080.96 1025.6Z" fill="white"/>
<path d="M797.772 933.954L552.669 281.715H304.246V1521.8C390.655 1477.21 479.555 1439.23 570.95 1407.86V895.978L744.598 1353.37C782.814 1342.64 821.034 1331.91 862.578 1322L1024.59 896.803V1283.19C1090.23 1269.16 1269.69 1239.43 1291.29 1236.13V280.89H1024.59L797.772 933.954Z" fill="white"/>
<path d="M1813.08 294.928C1774.86 318.046 1754.09 364.281 1740.8 405.561C1724.18 455.925 1711.72 507.114 1705.07 559.128C1705.07 559.953 1704.24 569.035 1700.09 569.035C1695.93 569.035 1696.76 562.428 1696.76 562.428V280.893H1425.91V1216.32C1519.79 1204.76 1610.36 1197.33 1696.76 1192.38V709.389C1696.76 692.879 1697.59 676.366 1700.09 659.853C1701.75 645.818 1707.56 632.608 1716.7 621.049C1721.69 615.27 1727.51 611.142 1734.15 607.839C1751.6 599.582 1770.71 594.629 1790.65 594.629C1823.05 593.804 1927.74 592.151 1927.74 592.151V278.416H1877.89C1855.45 278.416 1833.02 284.195 1813.08 294.928Z" fill="white"/>
<path d="M664.848 1716.64C653.215 1710.04 644.906 1699.3 639.921 1685.27C635.767 1671.24 636.597 1657.2 642.412 1645.64C648.23 1633.26 658.199 1625 672.323 1620.87C689.771 1615.09 705.558 1617.57 718.852 1628.3L764.547 1578.76C750.423 1566.38 734.639 1558.12 715.527 1554C707.219 1552.34 698.91 1551.52 690.601 1551.52C678.141 1551.52 665.678 1553.17 653.215 1557.3C620.81 1567.21 596.717 1587.02 582.593 1615.09C567.636 1643.16 565.146 1673.71 575.115 1705.91C585.084 1738.11 604.196 1761.23 632.443 1776.09C660.693 1790.95 691.435 1793.43 723.836 1782.69C744.608 1776.09 762.056 1765.35 776.18 1749.67C789.473 1735.63 797.782 1719.12 801.936 1700.96L736.299 1686.1C732.145 1702.61 720.512 1713.34 703.064 1719.12C689.771 1723.25 676.477 1722.42 664.848 1715.82V1716.64Z" fill="white"/>
<path d="M946.495 1485.48L953.14 1513.55L943.171 1506.12C930.708 1497.04 916.584 1492.91 900.797 1492.91C893.321 1492.91 885.013 1493.73 876.704 1496.21C848.453 1503.64 827.681 1520.98 813.558 1547.4C799.434 1573.82 796.94 1604.37 805.249 1637.39C813.558 1670.42 830.175 1695.18 854.271 1712.52C878.364 1729.03 904.951 1733.99 933.202 1726.56C958.958 1719.95 976.406 1705.92 986.375 1685.27L991.36 1674.54L998.008 1702.61L1062.81 1686.1L1008.81 1468.14L944.001 1484.65L946.495 1485.48ZM968.928 1636.56C962.279 1648.95 950.649 1657.21 935.692 1661.33C930.708 1662.98 925.723 1662.98 920.738 1662.98C911.599 1662.98 903.291 1660.51 894.982 1655.55C883.349 1648.12 875.04 1636.56 871.719 1620.05C867.565 1604.37 869.225 1589.5 875.874 1577.95C882.519 1565.56 894.152 1557.31 909.105 1553.18C924.063 1549.05 937.356 1551.52 949.819 1558.96C961.449 1566.39 969.758 1577.94 973.082 1594.46C977.236 1610.14 975.576 1625 968.928 1636.56Z" fill="white"/>
<path d="M1260.55 1540.79C1251.42 1532.53 1240.62 1526.75 1229.81 1525.1C1218.18 1522.62 1206.55 1521.8 1194.92 1521.8C1183.29 1521.8 1172.49 1520.97 1164.18 1519.32C1153.38 1517.67 1147.56 1513.54 1146.73 1507.76C1145.9 1502.81 1146.73 1497.86 1150.88 1494.55C1154.21 1491.25 1158.36 1489.6 1165.01 1487.95C1177.47 1485.47 1189.1 1489.6 1199.07 1500.33L1250.59 1464C1227.32 1436.76 1194.92 1426.85 1152.54 1435.11C1128.45 1440.06 1108.51 1450.79 1093.56 1466.48C1079.43 1482.17 1074.45 1501.16 1078.6 1524.27C1081.09 1538.31 1086.91 1549.04 1096.05 1557.3C1105.19 1565.56 1115.16 1570.51 1125.96 1572.99C1137.59 1575.46 1149.22 1577.11 1160.85 1577.11C1172.49 1577.11 1182.45 1578.77 1190.76 1579.59C1200.74 1581.24 1206.55 1585.37 1208.21 1591.15C1209.04 1596.93 1208.21 1601.88 1203.23 1605.19C1199.9 1608.49 1194.09 1610.96 1185.78 1612.62C1167.5 1615.92 1153.38 1610.96 1142.57 1596.93L1090.23 1637.38C1113.49 1666.28 1148.39 1675.36 1196.58 1666.28C1222.34 1661.33 1243.94 1650.59 1260.55 1634.91C1276.34 1619.22 1282.16 1600.23 1277.17 1575.46C1273.85 1560.6 1268.03 1548.22 1258.89 1539.96L1260.55 1540.79Z" fill="white"/>
<path d="M1361.09 1406.22L1293.79 1417.77L1331.18 1638.21L1398.48 1626.66L1361.09 1406.22Z" fill="white"/>
<path d="M1888.68 1371.54C1866.25 1353.37 1840.49 1344.29 1811.41 1344.29C1807.26 1344.29 1803.1 1344.29 1798.95 1344.29C1764.88 1346.77 1737.47 1360.8 1715.86 1385.57C1694.26 1410.34 1684.29 1439.24 1687.62 1472.26C1690.11 1505.29 1705.06 1532.53 1730.82 1553.17C1756.58 1573.82 1786.49 1582.9 1820.55 1580.42C1854.62 1577.94 1882.87 1563.91 1904.47 1539.14C1926.07 1514.37 1935.21 1485.47 1932.72 1452.45C1930.23 1419.42 1915.27 1392.18 1890.34 1371.54H1888.68ZM1850.46 1497.86C1841.32 1508.59 1828.86 1514.37 1813.91 1516.02C1812.24 1516.02 1810.58 1516.02 1808.92 1516.02C1796.46 1516.02 1784.83 1511.89 1775.69 1504.46C1764.88 1495.38 1759.07 1483 1757.41 1467.31C1755.74 1451.62 1759.9 1438.41 1769.04 1427.68C1778.18 1416.95 1789.81 1411.17 1804.77 1409.52C1819.72 1407.86 1833.01 1411.99 1843.82 1421.07C1854.62 1430.15 1860.43 1442.54 1862.1 1458.23C1863.76 1473.91 1859.6 1487.12 1850.46 1497.86Z" fill="white"/>
<path d="M1292.13 1371.53C1302.1 1378.14 1312.07 1379.79 1322.87 1378.14C1334.5 1376.49 1342.81 1371.53 1349.46 1362.45C1356.1 1353.37 1358.6 1344.29 1356.94 1333.56C1355.27 1322.82 1349.46 1315.39 1340.32 1308.79C1332.84 1303.84 1325.36 1301.36 1316.22 1301.36C1313.73 1301.36 1311.24 1301.36 1308.75 1301.36C1297.12 1303.01 1288.81 1307.96 1281.33 1317.05C1274.68 1326.13 1272.19 1335.21 1273.85 1345.94C1275.51 1356.67 1281.33 1364.93 1291.3 1370.71L1292.13 1371.53Z" fill="white"/>
<path d="M1618.64 1384.74C1601.2 1370.7 1580.42 1364.93 1556.33 1368.23C1528.08 1371.53 1508.97 1383.91 1498.17 1404.56L1491.52 1416.94L1487.37 1383.91L1418.41 1393L1448.32 1616.74L1517.28 1607.66L1501.49 1487.95C1499.83 1473.08 1501.49 1460.7 1508.14 1451.62C1514.79 1442.53 1524.76 1436.76 1538.05 1435.1C1549.68 1433.45 1560.48 1435.1 1567.96 1441.71C1576.27 1447.49 1581.25 1457.39 1582.92 1471.43L1599.53 1596.1L1668.49 1587.02L1650.21 1452.44C1646.06 1421.07 1635.26 1398.78 1617.81 1383.91L1618.64 1384.74Z" fill="white"/>
</g>
</svg>
