<svg width="1166" height="1158" viewBox="0 0 1166 1158" fill="none" xmlns="http://www.w3.org/2000/svg">
<path d="M513.443 56.6006C552.446 19.9304 613.246 19.9304 652.25 56.6006L772.853 169.991C779.308 176.061 787.478 179.994 796.248 181.257L960.094 204.851C1013.08 212.481 1050.99 260.017 1046.64 313.374L1033.18 478.364C1032.46 487.195 1034.48 496.034 1038.96 503.678L1122.67 646.49C1149.74 692.675 1136.21 751.951 1091.78 781.816L954.399 874.165C947.045 879.108 941.392 886.196 938.209 894.465L878.748 1048.95C859.518 1098.92 804.738 1125.3 753.687 1109.18L595.829 1059.35C587.379 1056.68 578.313 1056.68 569.864 1059.35L412.005 1109.18C360.954 1125.3 306.175 1098.92 286.945 1048.95L227.482 894.465C224.299 886.196 218.647 879.108 211.293 874.165L73.9087 781.816C29.4791 751.951 15.9502 692.675 43.022 646.49L126.732 503.678C131.212 496.034 133.23 487.195 132.51 478.364L119.053 313.374C114.702 260.017 152.609 212.481 205.597 204.851L369.445 181.257C378.215 179.994 386.383 176.06 392.838 169.991L513.443 56.6006Z" fill="#FFBCFB" stroke="white" stroke-width="58.1953"/>
<path d="M533.375 77.799C561.177 51.6598 604.516 51.6598 632.318 77.799L752.922 191.189C763.733 201.354 777.413 207.941 792.1 210.056L955.948 233.651C993.718 239.09 1020.74 272.974 1017.64 311.008L1004.18 475.998C1002.98 490.787 1006.35 505.59 1013.86 518.391L1097.57 661.203C1116.87 694.125 1107.22 736.378 1075.55 757.666L938.167 850.015C925.851 858.293 916.385 870.164 911.055 884.012L851.593 1038.5C837.885 1074.11 798.837 1092.92 762.447 1081.43L604.589 1031.6C590.438 1027.13 575.255 1027.13 561.105 1031.6L403.246 1081.43C366.856 1092.92 327.808 1074.11 314.101 1038.5L254.638 884.012C249.308 870.164 239.842 858.293 227.527 850.015L90.1423 757.666C58.4719 736.378 48.8279 694.125 68.1252 661.203L151.836 518.391C159.339 505.59 162.718 490.787 161.512 475.998L148.055 311.008C144.953 272.974 171.975 239.09 209.745 233.651L373.593 210.056C388.28 207.941 401.96 201.354 412.771 191.189L533.375 77.799Z" fill="#42D486" stroke="#0B2595" stroke-width="31.3359"/>
<path d="M291.114 417.078C281.848 417.078 277.987 419.009 277.987 426.731V432.523C282.813 424.8 290.342 424.8 297.292 424.8V451.828H277.987V550.286H249.028V451.828H237.445V424.8H249.028C249.028 407.232 254.241 393.912 279.531 393.912C285.516 393.912 291.307 394.491 297.292 395.842V417.078H291.114ZM357.154 422.87C374.336 422.87 377.618 435.804 377.618 463.025V470.747H348.66V461.095C348.66 452.407 346.15 449.897 341.324 449.897C336.497 449.897 333.988 452.407 333.988 461.095V550.286H305.029V424.8H333.988V438.893C337.076 431.943 343.833 422.87 357.154 422.87ZM421.728 422.87C445.088 422.87 458.022 435.804 458.022 466.886V493.335H414.392V508.2C414.392 521.328 415.357 525.189 421.728 525.189C428.099 525.189 429.064 521.328 429.064 508.2V501.057H458.022V508.2C458.022 539.282 445.088 552.217 421.728 552.217C398.368 552.217 385.434 539.282 385.434 508.2V466.886C385.434 435.804 398.368 422.87 421.728 422.87ZM429.064 474.029V466.886C429.064 453.759 427.906 449.897 421.728 449.897C415.357 449.897 414.392 453.759 414.392 466.886V474.029H429.064ZM502.133 422.87C525.492 422.87 538.427 435.804 538.427 466.886V493.335H494.796V508.2C494.796 521.328 495.762 525.189 502.133 525.189C508.503 525.189 509.469 521.328 509.469 508.2V501.057H538.427V508.2C538.427 539.282 525.492 552.217 502.133 552.217C478.773 552.217 465.838 539.282 465.838 508.2V466.886C465.838 435.804 478.773 422.87 502.133 422.87ZM509.469 474.029V466.886C509.469 453.759 508.31 449.897 502.133 449.897C495.762 449.897 494.796 453.759 494.796 466.886V474.029H509.469ZM625.52 477.118C640.193 487.929 649.652 496.424 649.652 515.922C649.652 537.351 639.42 552.217 614.13 552.217C588.84 552.217 577.064 541.213 577.064 506.27H606.022C606.022 521.328 608.725 525.189 614.13 525.189C619.536 525.189 620.694 521.328 620.694 515.922C620.694 510.131 618.763 506.077 601.195 493.914C589.226 485.613 577.064 477.697 577.064 457.234C577.064 437.735 587.682 422.87 612.006 422.87C636.331 422.87 647.722 437.735 647.722 464.956H618.763C618.763 453.759 616.447 449.897 612.006 449.897C607.566 449.897 606.022 453.759 606.022 457.234C606.022 463.797 610.462 466.114 625.52 477.118ZM709.014 422.87C726.775 422.87 730.057 435.804 730.057 463.025V512.061C730.057 539.282 726.775 552.217 709.014 552.217C696.272 552.217 689.515 543.143 686.426 536.193V588.897H657.468V424.8H686.426V438.893C689.515 431.943 696.272 422.87 709.014 422.87ZM701.098 513.992V461.095C701.098 451.828 698.589 449.897 693.762 449.897C688.936 449.897 686.426 451.828 686.426 461.095V513.992C686.426 523.258 688.936 525.189 693.762 525.189C698.589 525.189 701.098 523.258 701.098 513.992ZM752.351 419.009C744.436 419.009 737.872 413.41 737.872 406.653C737.872 399.51 744.436 393.912 752.351 393.912C760.267 393.912 766.831 399.51 766.831 406.653C766.831 413.41 760.267 419.009 752.351 419.009ZM737.872 424.8H766.831V550.286H737.872V424.8ZM826.083 422.87C843.844 422.87 847.126 435.804 847.126 463.025V550.286H818.168V461.095C818.168 451.828 815.658 449.897 810.832 449.897C806.006 449.897 803.496 451.828 803.496 461.095V550.286H774.538V424.8H803.496V438.893C806.585 431.943 813.342 422.87 826.083 422.87ZM903.399 477.118C918.071 487.929 927.531 496.424 927.531 515.922C927.531 537.351 917.299 552.217 892.009 552.217C866.719 552.217 854.942 541.213 854.942 506.27H883.9C883.9 521.328 886.603 525.189 892.009 525.189C897.414 525.189 898.573 521.328 898.573 515.922C898.573 510.131 896.642 506.077 879.074 493.914C867.105 485.613 854.942 477.697 854.942 457.234C854.942 437.735 865.56 422.87 889.885 422.87C914.21 422.87 925.6 437.735 925.6 464.956H896.642C896.642 453.759 894.325 449.897 889.885 449.897C885.445 449.897 883.9 453.759 883.9 457.234C883.9 463.797 888.341 466.114 903.399 477.118ZM290.876 643.87C308.637 643.87 311.919 656.804 311.919 684.025V771.286H282.961V682.095C282.961 672.828 280.451 670.897 275.625 670.897C270.798 670.897 268.289 672.828 268.289 682.095V771.286H239.33V645.8H268.289V659.893C271.377 652.943 278.134 643.87 290.876 643.87ZM319.735 729.2V687.886C319.735 656.804 332.669 643.87 356.029 643.87C379.389 643.87 392.323 656.804 392.323 687.886V729.2C392.323 760.282 379.389 773.217 356.029 773.217C332.669 773.217 319.735 760.282 319.735 729.2ZM348.693 729.2C348.693 742.328 349.658 746.189 356.029 746.189C362.4 746.189 363.365 742.328 363.365 729.2V687.886C363.365 674.759 362.207 670.897 356.029 670.897C349.658 670.897 348.693 674.759 348.693 687.886V729.2ZM479.417 698.118C494.089 708.929 503.549 717.424 503.549 736.922C503.549 758.351 493.317 773.217 468.027 773.217C442.736 773.217 430.96 762.213 430.96 727.27H459.918C459.918 742.328 462.621 746.189 468.027 746.189C473.432 746.189 474.591 742.328 474.591 736.922C474.591 731.131 472.66 727.077 455.092 714.914C443.123 706.613 430.96 698.697 430.96 678.234C430.96 658.735 441.578 643.87 465.903 643.87C490.228 643.87 501.618 658.735 501.618 685.956H472.66C472.66 674.759 470.343 670.897 465.903 670.897C461.463 670.897 459.918 674.759 459.918 678.234C459.918 684.797 464.359 687.114 479.417 698.118ZM567.441 672.828H548.135V729.2C548.135 742.328 551.997 744.258 559.333 744.258H567.441V771.286H551.61C524.39 771.286 519.177 760.282 519.177 729.2V672.828H507.594V645.8C518.984 642.518 521.301 628.811 521.108 616.842H550.066C550.066 629.97 546.784 643.291 536.552 645.8H567.441V672.828ZM627.303 643.87C644.485 643.87 647.767 656.804 647.767 684.025V691.747H618.809V682.095C618.809 673.407 616.299 670.897 611.473 670.897C606.646 670.897 604.136 673.407 604.136 682.095V771.286H575.178V645.8H604.136V659.893C607.225 652.943 613.982 643.87 627.303 643.87ZM670.062 640.009C662.147 640.009 655.583 634.41 655.583 627.653C655.583 620.51 662.147 614.912 670.062 614.912C677.977 614.912 684.541 620.51 684.541 627.653C684.541 634.41 677.977 640.009 670.062 640.009ZM655.583 645.8H684.541V771.286H655.583V645.8ZM743.794 643.87C761.555 643.87 764.837 656.804 764.837 684.025V771.286H735.878V682.095C735.878 672.828 733.369 670.897 728.542 670.897C723.716 670.897 721.206 672.828 721.206 682.095V771.286H692.248V645.8H721.206V659.893C724.295 652.943 731.052 643.87 743.794 643.87ZM816.283 645.8H845.241V767.811C845.241 798.893 840.029 809.897 812.808 809.897H778.444V782.869H805.086C812.422 782.869 816.283 780.939 816.283 767.811V757.193C813.194 764.143 806.437 773.217 793.695 773.217C775.934 773.217 772.652 760.282 772.652 733.061V684.025C772.652 656.804 775.934 643.87 793.695 643.87C806.437 643.87 813.194 652.943 816.283 659.893V645.8ZM808.947 746.189C813.773 746.189 816.283 744.258 816.283 734.992V682.095C816.283 672.828 813.773 670.897 808.947 670.897C804.12 670.897 801.611 672.828 801.611 682.095V734.992C801.611 744.258 804.12 746.189 808.947 746.189ZM901.514 698.118C916.186 708.929 925.646 717.424 925.646 736.922C925.646 758.351 915.414 773.217 890.123 773.217C864.833 773.217 853.057 762.213 853.057 727.27H882.015C882.015 742.328 884.718 746.189 890.123 746.189C895.529 746.189 896.687 742.328 896.687 736.922C896.687 731.131 894.757 727.077 877.189 714.914C865.219 706.613 853.057 698.697 853.057 678.234C853.057 658.735 863.675 643.87 888 643.87C912.325 643.87 923.715 658.735 923.715 685.956H894.757C894.757 674.759 892.44 670.897 888 670.897C883.56 670.897 882.015 674.759 882.015 678.234C882.015 684.797 886.455 687.114 901.514 698.118Z" fill="#0B2595"/>
</svg>
