<svg width="1124" height="1117" viewBox="0 0 1124 1117" fill="none" xmlns="http://www.w3.org/2000/svg">
<path d="M498.204 60.6631C529.698 17.4986 594.101 17.4986 625.595 60.6631L697.7 159.487C703.031 166.794 712.252 170.15 721.032 167.979L839.791 138.624C891.662 125.802 940.998 167.199 937.378 220.509L929.091 342.561C928.478 351.585 933.385 360.083 941.506 364.064L1051.35 417.914L1052.47 418.473C1099.5 442.424 1110.22 505.158 1073.47 543.368L988.669 631.539C982.399 638.058 980.695 647.722 984.357 655.992L1033.89 767.849C1055.52 816.706 1023.32 872.479 970.193 878.172L848.557 891.205C839.563 892.169 832.047 898.477 829.536 907.166L795.579 1024.69C780.747 1076.02 720.229 1098.05 675.871 1068.26L574.314 1000.06C566.806 995.016 556.993 995.016 549.484 1000.06L447.928 1068.26C403.57 1098.05 343.051 1076.02 328.22 1024.69L294.264 907.166C291.753 898.477 284.236 892.169 275.242 891.205L153.605 878.172C100.477 872.479 68.2757 816.706 89.9102 767.849L139.442 655.992C143.105 647.722 141.4 638.058 135.13 631.539L50.3281 543.368C13.2886 504.857 24.4719 441.434 72.4492 417.914L182.293 364.064C190.414 360.083 195.321 351.585 194.708 342.561L186.421 220.509C182.801 167.199 232.136 125.802 284.008 138.624L402.767 167.979C411.547 170.15 420.768 166.794 426.1 159.487L498.204 60.6631Z" fill="#FFDF00" stroke="white" stroke-width="56.5786"/>
<path d="M521.057 77.3368C541.252 49.6592 582.547 49.6592 602.742 77.3368L674.847 176.161C686.951 192.75 707.886 200.37 727.821 195.442L846.58 166.087C879.841 157.865 911.475 184.409 909.154 218.592L900.866 340.645C899.475 361.132 910.615 380.427 929.053 389.466L1038.9 443.315C1069.66 458.396 1076.83 499.064 1053.08 523.758L968.28 611.929C954.045 626.729 950.176 648.67 958.49 667.446L1008.02 779.303C1021.89 810.631 1001.25 846.394 967.18 850.044L845.543 863.077C825.125 865.264 808.058 879.585 802.358 899.313L768.401 1016.84C758.891 1049.75 720.086 1063.88 691.643 1044.78L590.086 976.574C573.039 965.125 550.76 965.125 533.713 976.574L432.156 1044.78C403.713 1063.88 364.908 1049.75 355.398 1016.84L321.441 899.313C315.741 879.585 298.674 865.264 278.256 863.077L156.619 850.044C122.552 846.394 101.905 810.631 115.777 779.303L165.309 667.446C173.623 648.67 169.755 626.729 155.519 611.929L70.7174 523.758C46.967 499.064 54.1379 458.396 84.9018 443.315L194.746 389.466C213.184 380.427 224.324 361.132 222.933 340.645L214.645 218.592C212.324 184.409 243.958 157.865 277.219 166.087L395.978 195.442C415.913 200.37 436.848 192.75 448.952 176.161L521.057 77.3368Z" fill="#FFDF00" stroke="#0B2595" stroke-width="30.4654"/>
<path d="M300.669 412.487C292.363 412.487 288.902 414.217 288.902 421.139V426.331C293.228 419.409 299.977 419.409 306.207 419.409V443.636H288.902V531.895H262.943V443.636H252.56V419.409H262.943C262.943 403.661 267.616 391.72 290.286 391.72C295.651 391.72 300.843 392.239 306.207 393.45V412.487H300.669ZM359.868 417.678C375.27 417.678 378.212 429.273 378.212 453.674V460.596H352.253V451.943C352.253 444.156 350.004 441.906 345.677 441.906C341.351 441.906 339.101 444.156 339.101 451.943V531.895H313.143V419.409H339.101V432.042C341.87 425.812 347.927 417.678 359.868 417.678ZM417.752 417.678C438.692 417.678 450.286 429.273 450.286 457.135V480.843H411.176V494.169C411.176 505.936 412.041 509.397 417.752 509.397C423.463 509.397 424.328 505.936 424.328 494.169V487.765H450.286V494.169C450.286 522.03 438.692 533.625 417.752 533.625C396.812 533.625 385.218 522.03 385.218 494.169V457.135C385.218 429.273 396.812 417.678 417.752 417.678ZM424.328 463.538V457.135C424.328 445.367 423.29 441.906 417.752 441.906C412.041 441.906 411.176 445.367 411.176 457.135V463.538H424.328ZM489.827 417.678C510.766 417.678 522.361 429.273 522.361 457.135V480.843H483.251V494.169C483.251 505.936 484.116 509.397 489.827 509.397C495.538 509.397 496.403 505.936 496.403 494.169V487.765H522.361V494.169C522.361 522.03 510.766 533.625 489.827 533.625C468.887 533.625 457.292 522.03 457.292 494.169V457.135C457.292 429.273 468.887 417.678 489.827 417.678ZM496.403 463.538V457.135C496.403 445.367 495.364 441.906 489.827 441.906C484.116 441.906 483.251 445.367 483.251 457.135V463.538H496.403ZM600.432 466.307C613.584 475.998 622.064 483.612 622.064 501.091C622.064 520.3 612.892 533.625 590.222 533.625C567.551 533.625 556.995 523.761 556.995 492.438H582.953C582.953 505.936 585.376 509.397 590.222 509.397C595.067 509.397 596.106 505.936 596.106 501.091C596.106 495.899 594.375 492.265 578.627 481.362C567.898 473.921 556.995 466.826 556.995 448.482C556.995 431.003 566.513 417.678 588.318 417.678C610.123 417.678 620.333 431.003 620.333 455.404H594.375C594.375 445.367 592.298 441.906 588.318 441.906C584.338 441.906 582.953 445.367 582.953 448.482C582.953 454.366 586.934 456.443 600.432 466.307ZM675.276 417.678C691.197 417.678 694.139 429.273 694.139 453.674V497.63C694.139 522.03 691.197 533.625 675.276 533.625C663.854 533.625 657.797 525.491 655.028 519.262V566.506H629.07V419.409H655.028V432.042C657.797 425.812 663.854 417.678 675.276 417.678ZM668.18 499.36V451.943C668.18 443.636 665.931 441.906 661.604 441.906C657.278 441.906 655.028 443.636 655.028 451.943V499.36C655.028 507.667 657.278 509.397 661.604 509.397C665.931 509.397 668.18 507.667 668.18 499.36ZM714.124 414.217C707.028 414.217 701.145 409.198 701.145 403.142C701.145 396.739 707.028 391.72 714.124 391.72C721.219 391.72 727.103 396.739 727.103 403.142C727.103 409.198 721.219 414.217 714.124 414.217ZM701.145 419.409H727.103V531.895H701.145V419.409ZM780.217 417.678C796.138 417.678 799.08 429.273 799.08 453.674V531.895H773.122V451.943C773.122 443.636 770.872 441.906 766.546 441.906C762.219 441.906 759.97 443.636 759.97 451.943V531.895H734.011V419.409H759.97V432.042C762.739 425.812 768.796 417.678 780.217 417.678ZM849.523 466.307C862.675 475.998 871.155 483.612 871.155 501.091C871.155 520.3 861.983 533.625 839.313 533.625C816.643 533.625 806.086 523.761 806.086 492.438H832.044C832.044 505.936 834.467 509.397 839.313 509.397C844.158 509.397 845.197 505.936 845.197 501.091C845.197 495.899 843.466 492.265 827.718 481.362C816.989 473.921 806.086 466.826 806.086 448.482C806.086 431.003 815.604 417.678 837.409 417.678C859.214 417.678 869.424 431.003 869.424 455.404H843.466C843.466 445.367 841.389 441.906 837.409 441.906C833.429 441.906 832.044 445.367 832.044 448.482C832.044 454.366 836.025 456.443 849.523 466.307ZM300.456 609.678C316.377 609.678 319.319 621.273 319.319 645.674V723.895H293.361V643.943C293.361 635.636 291.111 633.906 286.784 633.906C282.458 633.906 280.208 635.636 280.208 643.943V723.895H254.25V611.409H280.208V624.042C282.977 617.812 289.034 609.678 300.456 609.678ZM326.325 686.169V649.135C326.325 621.273 337.92 609.678 358.859 609.678C379.799 609.678 391.394 621.273 391.394 649.135V686.169C391.394 714.03 379.799 725.625 358.859 725.625C337.92 725.625 326.325 714.03 326.325 686.169ZM352.283 686.169C352.283 697.936 353.148 701.397 358.859 701.397C364.57 701.397 365.435 697.936 365.435 686.169V649.135C365.435 637.367 364.397 633.906 358.859 633.906C353.148 633.906 352.283 637.367 352.283 649.135V686.169ZM469.464 658.307C482.617 667.998 491.096 675.612 491.096 693.091C491.096 712.3 481.924 725.625 459.254 725.625C436.584 725.625 426.028 715.761 426.028 684.438H451.986C451.986 697.936 454.409 701.397 459.254 701.397C464.1 701.397 465.138 697.936 465.138 693.091C465.138 687.899 463.407 684.265 447.659 673.362C436.93 665.921 426.028 658.826 426.028 640.482C426.028 623.003 435.546 609.678 457.35 609.678C479.155 609.678 489.366 623.003 489.366 647.404H463.407C463.407 637.367 461.331 633.906 457.35 633.906C453.37 633.906 451.986 637.367 451.986 640.482C451.986 646.366 455.966 648.443 469.464 658.307ZM548.369 635.636H531.064V686.169C531.064 697.936 534.525 699.667 541.101 699.667H548.369V723.895H534.179C509.778 723.895 505.106 714.03 505.106 686.169V635.636H494.722V611.409C504.933 608.467 507.009 596.18 506.836 585.45H532.794C532.794 597.218 529.852 609.159 520.681 611.409H548.369V635.636ZM602.03 609.678C617.432 609.678 620.374 621.273 620.374 645.674V652.596H594.416V643.943C594.416 636.156 592.166 633.906 587.839 633.906C583.513 633.906 581.263 636.156 581.263 643.943V723.895H555.305V611.409H581.263V624.042C584.032 617.812 590.089 609.678 602.03 609.678ZM640.359 606.217C633.264 606.217 627.38 601.198 627.38 595.142C627.38 588.739 633.264 583.72 640.359 583.72C647.454 583.72 653.338 588.739 653.338 595.142C653.338 601.198 647.454 606.217 640.359 606.217ZM627.38 611.409H653.338V723.895H627.38V611.409ZM706.452 609.678C722.373 609.678 725.315 621.273 725.315 645.674V723.895H699.357V643.943C699.357 635.636 697.107 633.906 692.781 633.906C688.455 633.906 686.205 635.636 686.205 643.943V723.895H660.247V611.409H686.205V624.042C688.974 617.812 695.031 609.678 706.452 609.678ZM771.432 611.409H797.39V720.78C797.39 748.641 792.718 758.506 768.317 758.506H737.513V734.278H761.395C767.971 734.278 771.432 732.547 771.432 720.78V711.262C768.663 717.491 762.606 725.625 751.184 725.625C735.263 725.625 732.321 714.03 732.321 689.63V645.674C732.321 621.273 735.263 609.678 751.184 609.678C762.606 609.678 768.663 617.812 771.432 624.042V611.409ZM764.856 701.397C769.182 701.397 771.432 699.667 771.432 691.36V643.943C771.432 635.636 769.182 633.906 764.856 633.906C760.529 633.906 758.28 635.636 758.28 643.943V691.36C758.28 699.667 760.529 701.397 764.856 701.397ZM847.833 658.307C860.985 667.998 869.465 675.612 869.465 693.091C869.465 712.3 860.293 725.625 837.623 725.625C814.953 725.625 804.396 715.761 804.396 684.438H830.354C830.354 697.936 832.777 701.397 837.623 701.397C842.468 701.397 843.507 697.936 843.507 693.091C843.507 687.899 841.776 684.265 826.028 673.362C815.299 665.921 804.396 658.826 804.396 640.482C804.396 623.003 813.914 609.678 835.719 609.678C857.524 609.678 867.734 623.003 867.734 647.404H841.776C841.776 637.367 839.699 633.906 835.719 633.906C831.739 633.906 830.354 637.367 830.354 640.482C830.354 646.366 834.335 648.443 847.833 658.307Z" fill="#0B2595"/>
</svg>
