<svg width="1111" height="1114" viewBox="0 0 1111 1114" fill="none" xmlns="http://www.w3.org/2000/svg">
<path d="M444.394 81.7949C502.866 14.3885 607.48 14.3885 665.952 81.7949L679.186 97.0498C698.234 119.009 727.266 129.585 755.976 125.023L775.907 121.856C863.958 107.866 944.017 175.029 945.549 264.171L945.904 284.823C946.403 313.837 961.811 340.549 986.678 355.506L1004.36 366.143C1080.07 411.684 1098.51 513.201 1044.09 582.41L1042.79 584.039L1029.71 600.212C1011.47 622.759 1006.13 653.107 1015.56 680.529L1022.33 700.206C1051.31 784.451 999.1 874.866 911.646 891.871L891.63 895.763C863.118 901.307 839.479 921.159 829.091 948.284L821.791 967.347C789.886 1050.66 691.608 1086.42 613.622 1043.1L596.048 1033.33C570.627 1019.21 539.717 1019.21 514.297 1033.33L496.724 1043.1C418.738 1086.42 320.46 1050.66 288.555 967.347L281.254 948.284C270.866 921.16 247.227 901.307 218.716 895.763L198.699 891.871C111.246 874.866 59.0329 784.451 88.0166 700.206L94.7861 680.529C104.22 653.107 98.8736 622.759 80.6357 600.212L67.5537 584.039V584.038C11.5518 514.803 29.6751 412.043 105.983 366.143L123.668 355.506C148.534 340.549 163.943 313.837 164.441 284.823L164.796 264.171C166.328 175.029 246.388 107.866 334.438 121.856L354.369 125.023C383.079 129.585 412.111 119.009 431.16 97.0498L444.394 81.7949Z" fill="#00B2FF" stroke="white" stroke-width="62.48"/>
<path d="M467.992 102.265C514.008 49.2179 596.337 49.2179 642.353 102.265L655.587 117.521C681.706 147.63 721.512 162.131 760.878 155.876L780.809 152.71C850.103 141.699 913.108 194.555 914.314 264.708L914.669 285.36C915.352 325.142 936.479 361.767 970.575 382.276L988.259 392.913C1048.31 429.035 1062.57 509.906 1018.5 564.392L1005.42 580.565C980.413 611.481 973.083 653.092 986.018 690.693L992.788 710.369C1015.6 776.668 974.508 847.823 905.684 861.205L885.667 865.097C846.573 872.699 814.161 899.919 799.917 937.111L792.617 956.174C767.508 1021.74 690.166 1049.88 628.793 1015.79L611.219 1006.03C576.363 986.662 533.982 986.662 499.126 1006.03L481.553 1015.79C420.179 1049.88 342.837 1021.74 317.728 956.174L310.428 937.111C296.185 899.919 263.772 872.699 224.678 865.097L204.662 861.205C135.838 847.823 94.7475 776.669 117.557 710.369L124.327 690.693C137.263 653.092 129.932 611.481 104.925 580.565L91.8431 564.392C47.7701 509.906 62.033 429.035 122.086 392.913L139.77 382.276C173.866 361.767 194.993 325.143 195.676 285.36L196.031 264.708C197.237 194.555 260.242 141.699 329.536 152.709L349.467 155.876C388.833 162.131 428.639 147.63 454.758 117.521L467.992 102.265Z" fill="#00B2FF" stroke="#0C2287" stroke-width="29.6572"/>
<path d="M293.943 394.428C285.636 394.428 282.175 396.158 282.175 403.081V408.272C286.502 401.35 293.251 401.35 299.481 401.35V425.578H282.175V513.836H256.217V425.578H245.834V401.35H256.217C256.217 385.602 260.889 373.661 283.56 373.661C288.924 373.661 294.116 374.181 299.481 375.392V394.428H293.943ZM353.141 399.62C368.543 399.62 371.485 411.214 371.485 435.615V442.537H345.527V433.885C345.527 426.097 343.277 423.847 338.951 423.847C334.624 423.847 332.375 426.097 332.375 433.885V513.836H306.416V401.35H332.375V413.983C335.144 407.753 341.2 399.62 353.141 399.62ZM411.025 399.62C431.965 399.62 443.56 411.214 443.56 439.076V462.785H404.449V476.11C404.449 487.878 405.315 491.339 411.025 491.339C416.736 491.339 417.602 487.878 417.602 476.11V469.707H443.56V476.11C443.56 503.972 431.965 515.566 411.025 515.566C390.086 515.566 378.491 503.972 378.491 476.11V439.076C378.491 411.214 390.086 399.62 411.025 399.62ZM417.602 445.479V439.076C417.602 427.308 416.563 423.847 411.025 423.847C405.315 423.847 404.449 427.308 404.449 439.076V445.479H417.602ZM483.1 399.62C504.04 399.62 515.635 411.214 515.635 439.076V462.785H476.524V476.11C476.524 487.878 477.389 491.339 483.1 491.339C488.811 491.339 489.676 487.878 489.676 476.11V469.707H515.635V476.11C515.635 503.972 504.04 515.566 483.1 515.566C462.161 515.566 450.566 503.972 450.566 476.11V439.076C450.566 411.214 462.161 399.62 483.1 399.62ZM489.676 445.479V439.076C489.676 427.308 488.638 423.847 483.1 423.847C477.389 423.847 476.524 427.308 476.524 439.076V445.479H489.676ZM593.705 448.248C606.858 457.939 615.337 465.554 615.337 483.032C615.337 502.241 606.165 515.566 583.495 515.566C560.825 515.566 550.269 505.702 550.269 474.379H576.227C576.227 487.878 578.65 491.339 583.495 491.339C588.341 491.339 589.379 487.878 589.379 483.032C589.379 477.84 587.648 474.206 571.9 463.304C561.171 455.862 550.269 448.767 550.269 430.423C550.269 412.945 559.787 399.62 581.591 399.62C603.396 399.62 613.607 412.945 613.607 437.346H587.648C587.648 427.308 585.572 423.847 581.591 423.847C577.611 423.847 576.227 427.308 576.227 430.423C576.227 436.307 580.207 438.384 593.705 448.248ZM668.549 399.62C684.47 399.62 687.412 411.214 687.412 435.615V479.571C687.412 503.972 684.47 515.566 668.549 515.566C657.127 515.566 651.07 507.433 648.302 501.203V548.447H622.343V401.35H648.302V413.983C651.07 407.753 657.127 399.62 668.549 399.62ZM661.454 481.302V433.885C661.454 425.578 659.204 423.847 654.878 423.847C650.551 423.847 648.302 425.578 648.302 433.885V481.302C648.302 489.608 650.551 491.339 654.878 491.339C659.204 491.339 661.454 489.608 661.454 481.302ZM707.397 396.158C700.302 396.158 694.418 391.14 694.418 385.083C694.418 378.68 700.302 373.661 707.397 373.661C714.492 373.661 720.376 378.68 720.376 385.083C720.376 391.14 714.492 396.158 707.397 396.158ZM694.418 401.35H720.376V513.836H694.418V401.35ZM773.491 399.62C789.412 399.62 792.354 411.214 792.354 435.615V513.836H766.395V433.885C766.395 425.578 764.146 423.847 759.819 423.847C755.493 423.847 753.243 425.578 753.243 433.885V513.836H727.285V401.35H753.243V413.983C756.012 407.753 762.069 399.62 773.491 399.62ZM842.796 448.248C855.949 457.939 864.428 465.554 864.428 483.032C864.428 502.241 855.256 515.566 832.586 515.566C809.916 515.566 799.36 505.702 799.36 474.379H825.318C825.318 487.878 827.741 491.339 832.586 491.339C837.432 491.339 838.47 487.878 838.47 483.032C838.47 477.84 836.74 474.206 820.992 463.304C810.262 455.862 799.36 448.767 799.36 430.423C799.36 412.945 808.878 399.62 830.683 399.62C852.488 399.62 862.698 412.945 862.698 437.346H836.74C836.74 427.308 834.663 423.847 830.683 423.847C826.702 423.847 825.318 427.308 825.318 430.423C825.318 436.307 829.298 438.384 842.796 448.248ZM293.729 591.62C309.65 591.62 312.592 603.214 312.592 627.615V705.836H286.634V625.885C286.634 617.578 284.384 615.847 280.058 615.847C275.732 615.847 273.482 617.578 273.482 625.885V705.836H247.524V593.35H273.482V605.983C276.251 599.753 282.308 591.62 293.729 591.62ZM319.598 668.11V631.076C319.598 603.214 331.193 591.62 352.133 591.62C373.072 591.62 384.667 603.214 384.667 631.076V668.11C384.667 695.972 373.072 707.566 352.133 707.566C331.193 707.566 319.598 695.972 319.598 668.11ZM345.557 668.11C345.557 679.878 346.422 683.339 352.133 683.339C357.843 683.339 358.709 679.878 358.709 668.11V631.076C358.709 619.308 357.67 615.847 352.133 615.847C346.422 615.847 345.557 619.308 345.557 631.076V668.11ZM462.738 640.248C475.89 649.939 484.37 657.554 484.37 675.032C484.37 694.241 475.198 707.566 452.528 707.566C429.857 707.566 419.301 697.702 419.301 666.379H445.259C445.259 679.878 447.682 683.339 452.528 683.339C457.373 683.339 458.411 679.878 458.411 675.032C458.411 669.84 456.681 666.206 440.933 655.304C430.203 647.862 419.301 640.767 419.301 622.423C419.301 604.945 428.819 591.62 450.624 591.62C472.429 591.62 482.639 604.945 482.639 629.346H456.681C456.681 619.308 454.604 615.847 450.624 615.847C446.644 615.847 445.259 619.308 445.259 622.423C445.259 628.307 449.239 630.384 462.738 640.248ZM541.643 617.578H524.337V668.11C524.337 679.878 527.798 681.608 534.374 681.608H541.643V705.836H527.452C503.052 705.836 498.379 695.972 498.379 668.11V617.578H487.996V593.35C498.206 590.408 500.283 578.121 500.11 567.392H526.068C526.068 579.16 523.126 591.1 513.954 593.35H541.643V617.578ZM595.303 591.62C610.705 591.62 613.647 603.214 613.647 627.615V634.537H587.689V625.885C587.689 618.097 585.439 615.847 581.113 615.847C576.786 615.847 574.537 618.097 574.537 625.885V705.836H548.579V593.35H574.537V605.983C577.306 599.753 583.363 591.62 595.303 591.62ZM633.632 588.158C626.537 588.158 620.653 583.14 620.653 577.083C620.653 570.68 626.537 565.661 633.632 565.661C640.728 565.661 646.611 570.68 646.611 577.083C646.611 583.14 640.728 588.158 633.632 588.158ZM620.653 593.35H646.611V705.836H620.653V593.35ZM699.726 591.62C715.647 591.62 718.589 603.214 718.589 627.615V705.836H692.631V625.885C692.631 617.578 690.381 615.847 686.055 615.847C681.728 615.847 679.478 617.578 679.478 625.885V705.836H653.52V593.35H679.478V605.983C682.247 599.753 688.304 591.62 699.726 591.62ZM764.705 593.35H790.664V702.721C790.664 730.583 785.991 740.447 761.59 740.447H730.787V716.219H754.668C761.244 716.219 764.705 714.489 764.705 702.721V693.203C761.936 699.433 755.88 707.566 744.458 707.566C728.537 707.566 725.595 695.972 725.595 671.571V627.615C725.595 603.214 728.537 591.62 744.458 591.62C755.88 591.62 761.936 599.753 764.705 605.983V593.35ZM758.129 683.339C762.456 683.339 764.705 681.608 764.705 673.302V625.885C764.705 617.578 762.456 615.847 758.129 615.847C753.803 615.847 751.553 617.578 751.553 625.885V673.302C751.553 681.608 753.803 683.339 758.129 683.339ZM841.106 640.248C854.259 649.939 862.738 657.554 862.738 675.032C862.738 694.241 853.566 707.566 830.896 707.566C808.226 707.566 797.67 697.702 797.67 666.379H823.628C823.628 679.878 826.051 683.339 830.896 683.339C835.742 683.339 836.78 679.878 836.78 675.032C836.78 669.84 835.05 666.206 819.302 655.304C808.572 647.862 797.67 640.767 797.67 622.423C797.67 604.945 807.188 591.62 828.993 591.62C850.798 591.62 861.008 604.945 861.008 629.346H835.05C835.05 619.308 832.973 615.847 828.993 615.847C825.012 615.847 823.628 619.308 823.628 622.423C823.628 628.307 827.608 630.384 841.106 640.248Z" fill="#0B2595"/>
</svg>
