<svg width="1111" height="1114" viewBox="0 0 1111 1114" fill="none" xmlns="http://www.w3.org/2000/svg">
<path d="M444.394 81.7949C502.866 14.3885 607.48 14.3885 665.952 81.7949L679.186 97.0498C698.234 119.009 727.266 129.585 755.976 125.023L775.907 121.856C863.958 107.866 944.017 175.029 945.549 264.171L945.904 284.823C946.403 313.837 961.811 340.549 986.678 355.506L1004.36 366.143C1080.07 411.684 1098.51 513.201 1044.09 582.41L1042.79 584.039L1029.71 600.212C1011.47 622.759 1006.13 653.107 1015.56 680.529L1022.33 700.206C1051.31 784.451 999.1 874.866 911.646 891.871L891.63 895.763C863.118 901.307 839.479 921.159 829.091 948.284L821.791 967.347C789.886 1050.66 691.608 1086.42 613.622 1043.1L596.048 1033.33C570.627 1019.21 539.717 1019.21 514.297 1033.33L496.724 1043.1C418.738 1086.42 320.46 1050.66 288.555 967.347L281.254 948.284C270.866 921.16 247.227 901.307 218.716 895.763L198.699 891.871C111.246 874.866 59.0329 784.451 88.0166 700.206L94.7861 680.529C104.22 653.107 98.8736 622.759 80.6357 600.212L67.5537 584.039V584.038C11.5518 514.803 29.6751 412.043 105.983 366.143L123.668 355.506C148.534 340.549 163.943 313.837 164.441 284.823L164.796 264.171C166.328 175.029 246.388 107.866 334.438 121.856L354.369 125.023C383.079 129.585 412.111 119.009 431.16 97.0498L444.394 81.7949Z" fill="#00B2FF" stroke="white" stroke-width="62.48"/>
<path d="M467.992 102.265C514.008 49.2179 596.337 49.2179 642.353 102.265L655.587 117.521C681.706 147.63 721.512 162.131 760.878 155.876L780.809 152.71C850.103 141.699 913.108 194.555 914.314 264.708L914.669 285.36C915.352 325.142 936.479 361.767 970.575 382.276L988.259 392.913C1048.31 429.035 1062.57 509.906 1018.5 564.392L1005.42 580.565C980.413 611.481 973.083 653.092 986.018 690.693L992.788 710.369C1015.6 776.668 974.508 847.823 905.684 861.205L885.667 865.097C846.573 872.699 814.161 899.919 799.917 937.111L792.617 956.174C767.508 1021.74 690.166 1049.88 628.793 1015.79L611.219 1006.03C576.363 986.662 533.982 986.662 499.126 1006.03L481.553 1015.79C420.179 1049.88 342.837 1021.74 317.728 956.174L310.428 937.111C296.185 899.919 263.772 872.699 224.678 865.097L204.662 861.205C135.838 847.823 94.7475 776.669 117.557 710.369L124.327 690.693C137.263 653.092 129.932 611.481 104.925 580.565L91.8431 564.392C47.7701 509.906 62.033 429.035 122.086 392.913L139.77 382.276C173.866 361.767 194.993 325.143 195.676 285.36L196.031 264.708C197.237 194.555 260.242 141.699 329.536 152.709L349.467 155.876C388.833 162.131 428.639 147.63 454.758 117.521L467.992 102.265Z" fill="#00B2FF" stroke="#0C2287" stroke-width="29.6572"/>
<path d="M288.643 389.35C279.437 389.35 271.802 382.838 271.802 374.979C271.802 366.671 279.437 360.159 288.643 360.159C297.85 360.159 305.484 366.671 305.484 374.979C305.484 382.838 297.85 389.35 288.643 389.35ZM271.802 537.997V396.086H305.484V537.997C305.484 574.149 299.421 586.948 267.761 586.948H249.348V555.512H258.779C267.312 555.512 271.802 553.266 271.802 537.997ZM401.087 520.483C401.087 529.914 401.087 534.854 403.332 542.039H374.142C368.528 538.671 367.405 529.689 367.405 525.647C362.241 538.446 355.505 544.284 342.706 544.284C327.661 544.284 314.413 532.833 314.413 506.337C314.413 454.692 367.181 459.632 367.405 435.83C367.405 427.522 365.16 425.277 359.097 425.277C352.585 425.277 350.34 429.767 350.34 440.546V445.036H316.659V440.546C316.659 408.885 329.682 393.841 359.097 393.841C388.512 393.841 401.087 408.885 401.087 440.546V520.483ZM367.405 507.235V471.982C360.444 482.086 348.095 486.577 348.095 500.274C348.095 509.031 351.912 512.848 357.525 512.848C362.016 512.848 365.16 509.929 367.405 507.235ZM460.871 453.344V445.036C460.871 429.767 459.524 425.277 452.339 425.277C444.929 425.277 443.806 429.767 443.806 445.036V493.089C443.806 508.358 444.929 512.848 452.339 512.848C459.749 512.848 460.871 508.358 460.871 493.089V484.781H494.553V493.089C494.553 529.24 479.509 544.284 452.339 544.284C425.169 544.284 410.125 529.24 410.125 493.089V445.036C410.125 408.885 425.169 393.841 452.339 393.841C479.509 393.841 494.553 408.885 494.553 445.036V453.344H460.871ZM503.643 362.404H537.325V542.039H503.643V362.404ZM593.012 396.086L570.782 469.063L593.012 542.039H558.207L537.325 469.063L558.207 396.086H593.012ZM659.747 393.841C680.405 393.841 684.222 408.885 684.222 440.546V497.579C684.222 529.24 680.405 544.284 659.747 544.284C644.927 544.284 637.068 533.731 633.475 525.647V586.948H599.794V396.086H633.475V412.478C637.068 404.394 644.927 393.841 659.747 393.841ZM650.54 499.825V438.3C650.54 427.522 647.621 425.277 642.008 425.277C636.394 425.277 633.475 427.522 633.475 438.3V499.825C633.475 510.603 636.394 512.848 642.008 512.848C647.621 512.848 650.54 510.603 650.54 499.825ZM693.312 493.089V445.036C693.312 408.885 708.357 393.841 735.526 393.841C762.696 393.841 777.741 408.885 777.741 445.036V493.089C777.741 529.24 762.696 544.284 735.526 544.284C708.357 544.284 693.312 529.24 693.312 493.089ZM726.994 493.089C726.994 508.358 728.116 512.848 735.526 512.848C742.936 512.848 744.059 508.358 744.059 493.089V445.036C744.059 429.767 742.712 425.277 735.526 425.277C728.116 425.277 726.994 429.767 726.994 445.036V493.089ZM854.247 427.522H831.792V493.089C831.792 508.358 836.283 510.603 844.816 510.603H854.247V542.039H835.834C804.174 542.039 798.111 529.24 798.111 493.089V427.522H784.638V396.086C797.886 392.269 800.581 376.326 800.356 362.404H834.038C834.038 377.673 830.221 393.167 818.32 396.086H854.247V427.522ZM398.157 609.086H431.839V750.997C431.839 787.149 425.776 799.948 394.115 799.948H354.147V768.512H385.134C393.666 768.512 398.157 766.266 398.157 750.997V738.647C394.565 746.731 386.705 757.284 371.886 757.284C351.228 757.284 347.41 742.24 347.41 710.579L347.41 653.546C347.41 621.885 351.228 606.841 371.886 606.841C386.705 606.841 394.565 617.394 398.157 625.478V609.086ZM389.625 725.848C395.238 725.848 398.157 723.603 398.157 712.825V651.3C398.157 640.522 395.238 638.277 389.625 638.277C384.011 638.277 381.092 640.522 381.092 651.3V712.825C381.092 723.603 384.011 725.848 389.625 725.848ZM527.603 733.483C527.603 742.914 527.603 747.854 529.848 755.039H500.658C495.044 751.671 493.921 742.689 493.921 738.647C488.757 751.446 482.021 757.284 469.222 757.284C454.177 757.284 440.929 745.833 440.929 719.337C440.929 667.692 493.697 672.632 493.921 648.83C493.921 640.522 491.676 638.277 485.613 638.277C479.102 638.277 476.856 642.767 476.856 653.546V658.036H443.175V653.546C443.175 621.885 456.198 606.841 485.613 606.841C515.028 606.841 527.603 621.885 527.603 653.546V733.483ZM493.921 720.235V684.982C486.961 695.086 474.611 699.577 474.611 713.274C474.611 722.031 478.428 725.848 484.041 725.848C488.532 725.848 491.676 722.929 493.921 720.235ZM646.165 606.841C665.7 606.841 669.518 621.885 669.518 653.546V755.039H635.836V651.3C635.836 640.522 632.917 638.277 628.426 638.277C623.935 638.277 621.016 640.522 621.016 651.3V653.546V755.039H587.335V651.3C587.335 640.522 584.416 638.277 579.925 638.277C575.434 638.277 572.515 640.522 572.515 651.3V755.039H538.834V609.086H572.515V625.478C576.108 617.394 583.967 606.841 597.664 606.841C610.463 606.841 616.526 613.352 619.22 626.6C623.037 616.72 632.917 606.841 646.165 606.841ZM720.615 606.841C747.785 606.841 762.829 621.885 762.829 658.036V688.799H712.083V706.089C712.083 721.358 713.205 725.848 720.615 725.848C728.025 725.848 729.148 721.358 729.148 706.089V697.781H762.829V706.089C762.829 742.24 747.785 757.284 720.615 757.284C693.446 757.284 678.401 742.24 678.401 706.089V658.036C678.401 621.885 693.446 606.841 720.615 606.841ZM729.148 666.344V658.036C729.148 642.767 727.801 638.277 720.615 638.277C713.205 638.277 712.083 642.767 712.083 658.036V666.344H729.148Z" fill="#0B2595"/>
</svg>
