<svg width="1166" height="1158" viewBox="0 0 1166 1158" fill="none" xmlns="http://www.w3.org/2000/svg">
<path d="M513.443 56.6006C552.446 19.9304 613.247 19.9304 652.25 56.6006L772.854 169.991C779.309 176.061 787.478 179.994 796.248 181.257L960.095 204.851C1013.08 212.481 1050.99 260.017 1046.64 313.374L1033.18 478.364C1032.46 487.195 1034.48 496.034 1038.96 503.678L1122.67 646.49C1149.74 692.675 1136.21 751.951 1091.78 781.816L954.399 874.165C947.046 879.108 941.393 886.196 938.21 894.465L878.748 1048.95C859.518 1098.92 804.739 1125.3 753.688 1109.18L595.829 1059.35C587.38 1056.68 578.314 1056.68 569.864 1059.35L412.006 1109.18C360.955 1125.3 306.175 1098.92 286.945 1048.95L227.482 894.465C224.3 886.196 218.647 879.108 211.294 874.165L73.9092 781.816C29.4796 751.951 15.9507 692.675 43.0225 646.49L126.732 503.678C131.213 496.034 133.231 487.195 132.511 478.364L119.054 313.374C114.702 260.017 152.61 212.481 205.598 204.851L369.445 181.257C378.215 179.994 386.383 176.06 392.839 169.991L513.443 56.6006Z" fill="#FFBCFB" stroke="white" stroke-width="58.1953"/>
<path d="M533.375 77.799C561.177 51.6598 604.516 51.6598 632.318 77.799L752.922 191.189C763.733 201.354 777.413 207.941 792.1 210.056L955.948 233.651C993.718 239.09 1020.74 272.974 1017.64 311.008L1004.18 475.998C1002.98 490.787 1006.35 505.59 1013.86 518.391L1097.57 661.203C1116.87 694.125 1107.22 736.378 1075.55 757.666L938.167 850.015C925.851 858.293 916.385 870.164 911.055 884.012L851.593 1038.5C837.885 1074.11 798.837 1092.92 762.447 1081.43L604.589 1031.6C590.438 1027.13 575.255 1027.13 561.105 1031.6L403.246 1081.43C366.856 1092.92 327.808 1074.11 314.101 1038.5L254.638 884.012C249.308 870.164 239.842 858.293 227.527 850.015L90.1423 757.666C58.4719 736.378 48.8279 694.125 68.1252 661.203L151.836 518.391C159.339 505.59 162.718 490.787 161.512 475.998L148.055 311.008C144.953 272.974 171.975 239.09 209.745 233.651L373.593 210.056C388.28 207.941 401.96 201.354 412.771 191.189L533.375 77.799Z" fill="#42D486" stroke="#0B2595" stroke-width="31.3359"/>
<path d="M346.95 499.741C371.051 499.741 375.504 517.293 375.504 554.231V672.64H336.209V551.611C336.209 539.036 332.804 536.417 326.254 536.417C319.705 536.417 316.3 539.036 316.3 551.611V672.64H277.005V502.361H316.3V521.485C320.491 512.054 329.66 499.741 346.95 499.741ZM435.36 499.741C467.058 499.741 484.609 517.293 484.609 559.47V595.359H425.405V615.531C425.405 633.345 426.715 638.584 435.36 638.584C444.005 638.584 445.314 633.345 445.314 615.531V605.838H484.609V615.531C484.609 657.708 467.058 675.259 435.36 675.259C403.662 675.259 386.11 657.708 386.11 615.531V559.47C386.11 517.293 403.662 499.741 435.36 499.741ZM445.314 569.163V559.47C445.314 541.656 443.743 536.417 435.36 536.417C426.715 536.417 425.405 541.656 425.405 559.47V569.163H445.314ZM642.703 502.361H687.237L651.085 672.64H583.498V548.205L562.803 672.64H495.215V502.361H534.51V637.274L554.42 502.361H622.793V637.274L642.703 502.361ZM759.167 494.502C748.427 494.502 739.52 486.905 739.52 477.736C739.52 468.043 748.427 460.446 759.167 460.446C769.908 460.446 778.815 468.043 778.815 477.736C778.815 486.905 769.908 494.502 759.167 494.502ZM739.52 502.361H778.815V672.64H739.52V502.361ZM859.218 499.741C883.319 499.741 887.773 517.293 887.773 554.231V672.64H848.478V551.611C848.478 539.036 845.072 536.417 838.523 536.417C831.974 536.417 828.568 539.036 828.568 551.611V672.64H789.273V502.361H828.568V521.485C832.76 512.054 841.929 499.741 859.218 499.741Z" fill="#0B2595"/>
</svg>
