<svg width="1124" height="1117" viewBox="0 0 1124 1117" fill="none" xmlns="http://www.w3.org/2000/svg">
<path d="M498.204 60.6631C529.698 17.4986 594.101 17.4986 625.595 60.6631L697.7 159.487C703.031 166.794 712.252 170.15 721.032 167.979L839.791 138.624C891.662 125.802 940.998 167.199 937.378 220.509L929.091 342.561C928.478 351.585 933.385 360.083 941.506 364.064L1051.35 417.914L1052.47 418.473C1099.5 442.424 1110.22 505.158 1073.47 543.368L988.669 631.539C982.399 638.058 980.695 647.722 984.357 655.992L1033.89 767.849C1055.52 816.706 1023.32 872.479 970.193 878.172L848.557 891.205C839.563 892.169 832.047 898.477 829.536 907.166L795.579 1024.69C780.747 1076.02 720.229 1098.05 675.871 1068.26L574.314 1000.06C566.806 995.016 556.993 995.016 549.484 1000.06L447.928 1068.26C403.57 1098.05 343.051 1076.02 328.22 1024.69L294.264 907.166C291.753 898.477 284.236 892.169 275.242 891.205L153.605 878.172C100.477 872.479 68.2757 816.706 89.9102 767.849L139.442 655.992C143.105 647.722 141.4 638.058 135.13 631.539L50.3281 543.368C13.2886 504.857 24.4719 441.434 72.4492 417.914L182.293 364.064C190.414 360.083 195.321 351.585 194.708 342.561L186.421 220.509C182.801 167.199 232.136 125.802 284.008 138.624L402.767 167.979C411.547 170.15 420.768 166.794 426.1 159.487L498.204 60.6631Z" fill="#FFDF00" stroke="white" stroke-width="56.5786"/>
<path d="M521.057 77.3368C541.252 49.6592 582.547 49.6592 602.742 77.3368L674.847 176.161C686.951 192.75 707.886 200.37 727.821 195.442L846.58 166.087C879.841 157.865 911.475 184.409 909.154 218.592L900.866 340.645C899.475 361.132 910.615 380.427 929.053 389.466L1038.9 443.315C1069.66 458.396 1076.83 499.064 1053.08 523.758L968.28 611.929C954.045 626.729 950.176 648.67 958.49 667.446L1008.02 779.303C1021.89 810.631 1001.25 846.394 967.18 850.044L845.543 863.077C825.125 865.264 808.058 879.585 802.358 899.313L768.401 1016.84C758.891 1049.75 720.086 1063.88 691.643 1044.78L590.086 976.574C573.039 965.125 550.76 965.125 533.713 976.574L432.156 1044.78C403.713 1063.88 364.908 1049.75 355.398 1016.84L321.441 899.313C315.741 879.585 298.674 865.264 278.256 863.077L156.619 850.044C122.552 846.394 101.905 810.631 115.777 779.303L165.309 667.446C173.623 648.67 169.755 626.729 155.519 611.929L70.7174 523.758C46.967 499.064 54.1379 458.396 84.9018 443.315L194.746 389.466C213.184 380.427 224.324 361.132 222.933 340.645L214.645 218.592C212.324 184.409 243.958 157.865 277.219 166.087L395.978 195.442C415.913 200.37 436.848 192.75 448.952 176.161L521.057 77.3368Z" fill="#FFDF00" stroke="#0B2595" stroke-width="30.4654"/>
<path d="M305.185 426.552C321.106 426.552 324.048 438.147 324.048 462.548V540.769H298.09V460.817C298.09 452.51 295.84 450.78 291.514 450.78C287.187 450.78 284.938 452.51 284.938 460.817V540.769H258.979V428.283H284.938V440.916C287.707 434.686 293.764 426.552 305.185 426.552ZM331.054 503.043V466.009C331.054 438.147 342.649 426.552 363.589 426.552C384.528 426.552 396.123 438.147 396.123 466.009V503.043C396.123 530.904 384.528 542.499 363.589 542.499C342.649 542.499 331.054 530.904 331.054 503.043ZM357.012 503.043C357.012 514.81 357.878 518.271 363.589 518.271C369.299 518.271 370.165 514.81 370.165 503.043V466.009C370.165 454.241 369.126 450.78 363.589 450.78C357.878 450.78 357.012 454.241 357.012 466.009V503.043ZM455.086 452.51H437.781V503.043C437.781 514.81 441.242 516.541 447.818 516.541H455.086V540.769H440.895C416.495 540.769 411.822 530.904 411.822 503.043V452.51H401.439V428.283C411.649 425.341 413.726 413.054 413.553 402.325H439.511C439.511 414.092 436.569 426.033 427.397 428.283H455.086V452.51ZM533.087 475.181C546.239 484.872 554.718 492.486 554.718 509.965C554.718 529.174 545.546 542.499 522.876 542.499C500.206 542.499 489.65 532.635 489.65 501.312H515.608C515.608 514.81 518.031 518.271 522.876 518.271C527.722 518.271 528.76 514.81 528.76 509.965C528.76 504.773 527.03 501.139 511.282 490.236C500.552 482.795 489.65 475.7 489.65 457.356C489.65 439.877 499.168 426.552 520.973 426.552C542.778 426.552 552.988 439.877 552.988 464.278H527.03C527.03 454.241 524.953 450.78 520.973 450.78C516.992 450.78 515.608 454.241 515.608 457.356C515.608 463.24 519.588 465.317 533.087 475.181ZM626.793 524.155C626.793 531.424 626.793 535.231 628.524 540.769H606.027C601.7 538.173 600.835 531.251 600.835 528.136C598.066 534.366 592.009 542.499 580.587 542.499C564.666 542.499 561.724 530.904 561.724 506.504V428.283H587.683V508.234C587.683 516.541 589.932 518.271 594.259 518.271C598.585 518.271 600.835 516.541 600.835 508.234V428.283H626.793V524.155ZM680.005 426.552C695.926 426.552 698.868 438.147 698.868 462.548V506.504C698.868 530.904 695.926 542.499 680.005 542.499C668.583 542.499 662.526 534.366 659.757 528.136C659.757 531.251 658.892 538.173 654.566 540.769H632.069C633.799 535.231 633.799 531.424 633.799 524.155V402.325H659.757V440.916C662.526 434.686 668.583 426.552 680.005 426.552ZM672.91 508.234V460.817C672.91 452.51 670.66 450.78 666.334 450.78C662.007 450.78 659.757 452.51 659.757 460.817V508.234C659.757 516.541 662.007 518.271 666.334 518.271C670.66 518.271 672.91 516.541 672.91 508.234ZM757.831 452.51H740.525V503.043C740.525 514.81 743.987 516.541 750.563 516.541H757.831V540.769H743.64C719.24 540.769 714.567 530.904 714.567 503.043V452.51H704.184V428.283C714.394 425.341 716.471 413.054 716.298 402.325H742.256C742.256 414.092 739.314 426.033 730.142 428.283H757.831V452.51ZM764.767 402.325H790.725V540.769H764.767V402.325ZM830.168 426.552C851.108 426.552 862.702 438.147 862.702 466.009V489.717H823.592V503.043C823.592 514.81 824.457 518.271 830.168 518.271C835.879 518.271 836.744 514.81 836.744 503.043V496.64H862.702V503.043C862.702 530.904 851.108 542.499 830.168 542.499C809.228 542.499 797.634 530.904 797.634 503.043V466.009C797.634 438.147 809.228 426.552 830.168 426.552ZM836.744 472.412V466.009C836.744 454.241 835.706 450.78 830.168 450.78C824.457 450.78 823.592 454.241 823.592 466.009V472.412H836.744ZM315.028 618.552C330.949 618.552 333.891 630.147 333.891 654.548V732.769H307.932V652.817C307.932 644.51 305.683 642.78 301.356 642.78C297.03 642.78 294.78 644.51 294.78 652.817V732.769H268.822V620.283H294.78V632.916C297.549 626.686 303.606 618.552 315.028 618.552ZM340.897 695.043V658.009C340.897 630.147 352.491 618.552 373.431 618.552C394.371 618.552 405.965 630.147 405.965 658.009V695.043C405.965 722.904 394.371 734.499 373.431 734.499C352.491 734.499 340.897 722.904 340.897 695.043ZM366.855 695.043C366.855 706.81 367.72 710.271 373.431 710.271C379.142 710.271 380.007 706.81 380.007 695.043V658.009C380.007 646.241 378.969 642.78 373.431 642.78C367.72 642.78 366.855 646.241 366.855 658.009V695.043ZM464.929 644.51H447.623V695.043C447.623 706.81 451.084 708.541 457.66 708.541H464.929V732.769H450.738C426.337 732.769 421.665 722.904 421.665 695.043V644.51H411.281V620.283C421.492 617.341 423.568 605.054 423.395 594.325H449.354C449.354 606.092 446.412 618.033 437.24 620.283H464.929V644.51ZM542.929 667.181C556.081 676.872 564.561 684.486 564.561 701.965C564.561 721.174 555.389 734.499 532.719 734.499C510.049 734.499 499.492 724.635 499.492 693.312H525.45C525.45 706.81 527.873 710.271 532.719 710.271C537.564 710.271 538.603 706.81 538.603 701.965C538.603 696.773 536.872 693.139 521.124 682.236C510.395 674.795 499.492 667.7 499.492 649.356C499.492 631.877 509.01 618.552 530.815 618.552C552.62 618.552 562.83 631.877 562.83 656.278H536.872C536.872 646.241 534.795 642.78 530.815 642.78C526.835 642.78 525.45 646.241 525.45 649.356C525.45 655.24 529.431 657.317 542.929 667.181ZM571.567 695.043V658.009C571.567 630.147 583.162 618.552 604.101 618.552C625.041 618.552 636.636 630.147 636.636 658.009V695.043C636.636 722.904 625.041 734.499 604.101 734.499C583.162 734.499 571.567 722.904 571.567 695.043ZM597.525 695.043C597.525 706.81 598.39 710.271 604.101 710.271C609.812 710.271 610.677 706.81 610.677 695.043V658.009C610.677 646.241 609.639 642.78 604.101 642.78C598.39 642.78 597.525 646.241 597.525 658.009V695.043ZM690.367 618.552C705.768 618.552 708.71 630.147 708.71 654.548V661.47H682.752V652.817C682.752 645.03 680.502 642.78 676.176 642.78C671.85 642.78 669.6 645.03 669.6 652.817V732.769H643.642V620.283H669.6V632.916C672.369 626.686 678.426 618.552 690.367 618.552ZM762.441 618.552C777.843 618.552 780.785 630.147 780.785 654.548V661.47H754.827V652.817C754.827 645.03 752.577 642.78 748.251 642.78C743.924 642.78 741.675 645.03 741.675 652.817V732.769H715.716V620.283H741.675V632.916C744.444 626.686 750.5 618.552 762.441 618.552ZM826.902 620.283H852.86V729.654C852.86 757.515 848.187 767.38 823.787 767.38H792.983V743.152H816.864C823.44 743.152 826.902 741.421 826.902 729.654V720.136C824.133 726.366 818.076 734.499 806.654 734.499C790.733 734.499 787.791 722.904 787.791 698.504V620.283H813.749V700.234C813.749 708.541 815.999 710.271 820.325 710.271C824.652 710.271 826.902 708.541 826.902 700.234V620.283Z" fill="#0B2595"/>
</svg>
