<svg width="1111" height="1114" viewBox="0 0 1111 1114" fill="none" xmlns="http://www.w3.org/2000/svg">
<path d="M444.394 81.7949C502.866 14.3885 607.48 14.3885 665.952 81.7949L679.186 97.0498C698.234 119.009 727.266 129.585 755.976 125.023L775.907 121.856C863.958 107.866 944.017 175.029 945.549 264.171L945.904 284.823C946.403 313.837 961.811 340.549 986.678 355.506L1004.36 366.143C1080.07 411.684 1098.51 513.201 1044.09 582.41L1042.79 584.039L1029.71 600.212C1011.47 622.759 1006.13 653.107 1015.56 680.529L1022.33 700.206C1051.31 784.451 999.1 874.866 911.646 891.871L891.63 895.763C863.118 901.307 839.479 921.159 829.091 948.284L821.791 967.347C789.886 1050.66 691.608 1086.42 613.622 1043.1L596.048 1033.33C570.627 1019.21 539.717 1019.21 514.297 1033.33L496.724 1043.1C418.738 1086.42 320.46 1050.66 288.555 967.347L281.254 948.284C270.866 921.16 247.227 901.307 218.716 895.763L198.699 891.871C111.246 874.866 59.0329 784.451 88.0166 700.206L94.7861 680.529C104.22 653.107 98.8736 622.759 80.6357 600.212L67.5537 584.039V584.038C11.5518 514.803 29.6751 412.043 105.983 366.143L123.668 355.506C148.534 340.549 163.943 313.837 164.441 284.823L164.796 264.171C166.328 175.029 246.388 107.866 334.438 121.856L354.369 125.023C383.079 129.585 412.111 119.009 431.16 97.0498L444.394 81.7949Z" fill="#00B2FF" stroke="white" stroke-width="62.48"/>
<path d="M467.992 102.265C514.008 49.2179 596.337 49.2179 642.353 102.265L655.587 117.521C681.706 147.63 721.512 162.131 760.878 155.876L780.809 152.71C850.103 141.699 913.108 194.555 914.314 264.708L914.669 285.36C915.352 325.142 936.479 361.767 970.575 382.276L988.259 392.913C1048.31 429.035 1062.57 509.906 1018.5 564.392L1005.42 580.565C980.413 611.481 973.083 653.092 986.018 690.693L992.788 710.369C1015.6 776.668 974.508 847.823 905.684 861.205L885.667 865.097C846.573 872.699 814.161 899.919 799.917 937.111L792.617 956.174C767.508 1021.74 690.166 1049.88 628.793 1015.79L611.219 1006.03C576.363 986.662 533.982 986.662 499.126 1006.03L481.553 1015.79C420.179 1049.88 342.837 1021.74 317.728 956.174L310.428 937.111C296.185 899.919 263.772 872.699 224.678 865.097L204.662 861.205C135.838 847.823 94.7475 776.669 117.557 710.369L124.327 690.693C137.263 653.092 129.932 611.481 104.925 580.565L91.8431 564.392C47.7701 509.906 62.033 429.035 122.086 392.913L139.77 382.276C173.866 361.767 194.993 325.143 195.676 285.36L196.031 264.708C197.237 194.555 260.242 141.699 329.536 152.709L349.467 155.876C388.833 162.131 428.639 147.63 454.758 117.521L467.992 102.265Z" fill="#00B2FF" stroke="#0C2287" stroke-width="29.6572"/>
<path d="M299.474 427.455C315.395 427.455 318.337 439.049 318.337 463.45V541.671H292.379V461.719C292.379 453.413 290.129 451.682 285.803 451.682C281.477 451.682 279.227 453.413 279.227 461.719V541.671H253.269V429.185H279.227V441.818C281.996 435.588 288.053 427.455 299.474 427.455ZM325.343 503.945V466.911C325.343 439.049 336.938 427.455 357.878 427.455C378.817 427.455 390.412 439.049 390.412 466.911V503.945C390.412 531.807 378.817 543.401 357.878 543.401C336.938 543.401 325.343 531.807 325.343 503.945ZM351.302 503.945C351.302 515.713 352.167 519.174 357.878 519.174C363.588 519.174 364.454 515.713 364.454 503.945V466.911C364.454 455.143 363.415 451.682 357.878 451.682C352.167 451.682 351.302 455.143 351.302 466.911V503.945ZM449.375 453.413H432.07V503.945C432.07 515.713 435.531 517.443 442.107 517.443H449.375V541.671H435.185C410.784 541.671 406.111 531.807 406.111 503.945V453.413H395.728V429.185C405.938 426.243 408.015 413.956 407.842 403.227H433.8C433.8 414.995 430.858 426.935 421.686 429.185H449.375V453.413ZM527.376 476.083C540.528 485.774 549.007 493.389 549.007 510.867C549.007 530.076 539.836 543.401 517.165 543.401C494.495 543.401 483.939 533.537 483.939 502.214H509.897C509.897 515.713 512.32 519.174 517.165 519.174C522.011 519.174 523.049 515.713 523.049 510.867C523.049 505.675 521.319 502.041 505.571 491.139C494.841 483.697 483.939 476.602 483.939 458.258C483.939 440.78 493.457 427.455 515.262 427.455C537.067 427.455 547.277 440.78 547.277 465.181H521.319C521.319 455.143 519.242 451.682 515.262 451.682C511.281 451.682 509.897 455.143 509.897 458.258C509.897 464.142 513.877 466.219 527.376 476.083ZM621.082 525.058C621.082 532.326 621.082 536.133 622.813 541.671H600.316C595.989 539.075 595.124 532.153 595.124 529.038C592.355 535.268 586.298 543.401 574.876 543.401C558.955 543.401 556.013 531.807 556.013 507.406V429.185H581.972V509.137C581.972 517.443 584.221 519.174 588.548 519.174C592.874 519.174 595.124 517.443 595.124 509.137V429.185H621.082V525.058ZM674.294 427.455C690.215 427.455 693.157 439.049 693.157 463.45V507.406C693.157 531.807 690.215 543.401 674.294 543.401C662.872 543.401 656.815 535.268 654.046 529.038C654.046 532.153 653.181 539.075 648.855 541.671H626.358C628.088 536.133 628.088 532.326 628.088 525.058V403.227H654.046V441.818C656.815 435.588 662.872 427.455 674.294 427.455ZM667.199 509.137V461.719C667.199 453.413 664.949 451.682 660.623 451.682C656.296 451.682 654.046 453.413 654.046 461.719V509.137C654.046 517.443 656.296 519.174 660.623 519.174C664.949 519.174 667.199 517.443 667.199 509.137ZM752.12 453.413H734.815V503.945C734.815 515.713 738.276 517.443 744.852 517.443H752.12V541.671H737.93C713.529 541.671 708.856 531.807 708.856 503.945V453.413H698.473V429.185C708.683 426.243 710.76 413.956 710.587 403.227H736.545C736.545 414.995 733.603 426.935 724.431 429.185H752.12V453.413ZM759.056 403.227H785.014V541.671H759.056V403.227ZM824.457 427.455C845.397 427.455 856.991 439.049 856.991 466.911V490.62H817.881V503.945C817.881 515.713 818.746 519.174 824.457 519.174C830.168 519.174 831.033 515.713 831.033 503.945V497.542H856.991V503.945C856.991 531.807 845.397 543.401 824.457 543.401C803.517 543.401 791.923 531.807 791.923 503.945V466.911C791.923 439.049 803.517 427.455 824.457 427.455ZM831.033 473.314V466.911C831.033 455.143 829.995 451.682 824.457 451.682C818.746 451.682 817.881 455.143 817.881 466.911V473.314H831.033ZM309.317 619.455C325.238 619.455 328.18 631.049 328.18 655.45V733.671H302.221V653.719C302.221 645.413 299.972 643.682 295.645 643.682C291.319 643.682 289.069 645.413 289.069 653.719V733.671H263.111V621.185H289.069V633.818C291.838 627.588 297.895 619.455 309.317 619.455ZM335.186 695.945V658.911C335.186 631.049 346.78 619.455 367.72 619.455C388.66 619.455 400.254 631.049 400.254 658.911V695.945C400.254 723.807 388.66 735.401 367.72 735.401C346.78 735.401 335.186 723.807 335.186 695.945ZM361.144 695.945C361.144 707.713 362.009 711.174 367.72 711.174C373.431 711.174 374.296 707.713 374.296 695.945V658.911C374.296 647.143 373.258 643.682 367.72 643.682C362.009 643.682 361.144 647.143 361.144 658.911V695.945ZM459.218 645.413H441.912V695.945C441.912 707.713 445.373 709.443 451.949 709.443H459.218V733.671H445.027C420.626 733.671 415.954 723.807 415.954 695.945V645.413H405.571V621.185C415.781 618.243 417.857 605.956 417.684 595.227H443.643C443.643 606.995 440.701 618.935 431.529 621.185H459.218V645.413ZM537.218 668.083C550.37 677.774 558.85 685.389 558.85 702.867C558.85 722.076 549.678 735.401 527.008 735.401C504.338 735.401 493.781 725.537 493.781 694.214H519.74C519.74 707.713 522.162 711.174 527.008 711.174C531.853 711.174 532.892 707.713 532.892 702.867C532.892 697.675 531.161 694.041 515.413 683.139C504.684 675.697 493.781 668.602 493.781 650.258C493.781 632.78 503.299 619.455 525.104 619.455C546.909 619.455 557.119 632.78 557.119 657.181H531.161C531.161 647.143 529.085 643.682 525.104 643.682C521.124 643.682 519.74 647.143 519.74 650.258C519.74 656.142 523.72 658.219 537.218 668.083ZM565.856 695.945V658.911C565.856 631.049 577.451 619.455 598.39 619.455C619.33 619.455 630.925 631.049 630.925 658.911V695.945C630.925 723.807 619.33 735.401 598.39 735.401C577.451 735.401 565.856 723.807 565.856 695.945ZM591.814 695.945C591.814 707.713 592.68 711.174 598.39 711.174C604.101 711.174 604.966 707.713 604.966 695.945V658.911C604.966 647.143 603.928 643.682 598.39 643.682C592.68 643.682 591.814 647.143 591.814 658.911V695.945ZM684.656 619.455C700.057 619.455 702.999 631.049 702.999 655.45V662.372H677.041V653.719C677.041 645.932 674.791 643.682 670.465 643.682C666.139 643.682 663.889 645.932 663.889 653.719V733.671H637.931V621.185H663.889V633.818C666.658 627.588 672.715 619.455 684.656 619.455ZM756.73 619.455C772.132 619.455 775.074 631.049 775.074 655.45V662.372H749.116V653.719C749.116 645.932 746.866 643.682 742.54 643.682C738.213 643.682 735.964 645.932 735.964 653.719V733.671H710.005V621.185H735.964V633.818C738.733 627.588 744.79 619.455 756.73 619.455ZM821.191 621.185H847.149V730.556C847.149 758.418 842.476 768.282 818.076 768.282H787.272V744.054H811.153C817.73 744.054 821.191 742.324 821.191 730.556V721.038C818.422 727.268 812.365 735.401 800.943 735.401C785.022 735.401 782.08 723.807 782.08 699.406V621.185H808.038V701.137C808.038 709.443 810.288 711.174 814.615 711.174C818.941 711.174 821.191 709.443 821.191 701.137V621.185Z" fill="#0B2595"/>
</svg>
