<svg width="1166" height="1158" viewBox="0 0 1166 1158" fill="none" xmlns="http://www.w3.org/2000/svg">
<path d="M513.443 56.6006C552.446 19.9304 613.247 19.9304 652.25 56.6006L772.854 169.991C779.309 176.061 787.478 179.994 796.248 181.257L960.095 204.851C1013.08 212.481 1050.99 260.017 1046.64 313.374L1033.18 478.364C1032.46 487.195 1034.48 496.034 1038.96 503.678L1122.67 646.49C1149.74 692.675 1136.21 751.951 1091.78 781.816L954.399 874.165C947.046 879.108 941.393 886.196 938.21 894.465L878.748 1048.95C859.518 1098.92 804.739 1125.3 753.688 1109.18L595.829 1059.35C587.38 1056.68 578.314 1056.68 569.864 1059.35L412.006 1109.18C360.955 1125.3 306.175 1098.92 286.945 1048.95L227.482 894.465C224.3 886.196 218.647 879.108 211.294 874.165L73.9092 781.816C29.4796 751.951 15.9507 692.675 43.0225 646.49L126.732 503.678C131.213 496.034 133.231 487.195 132.511 478.364L119.054 313.374C114.702 260.017 152.61 212.481 205.598 204.851L369.445 181.257C378.215 179.994 386.383 176.06 392.839 169.991L513.443 56.6006Z" fill="#FFBCFB" stroke="white" stroke-width="58.1953"/>
<path d="M533.375 77.799C561.177 51.6598 604.516 51.6598 632.318 77.799L752.922 191.189C763.733 201.354 777.413 207.941 792.1 210.056L955.948 233.651C993.718 239.09 1020.74 272.974 1017.64 311.008L1004.18 475.998C1002.98 490.787 1006.35 505.59 1013.86 518.391L1097.57 661.203C1116.87 694.125 1107.22 736.378 1075.55 757.666L938.167 850.015C925.851 858.293 916.385 870.164 911.055 884.012L851.593 1038.5C837.885 1074.11 798.837 1092.92 762.447 1081.43L604.589 1031.6C590.438 1027.13 575.255 1027.13 561.105 1031.6L403.246 1081.43C366.856 1092.92 327.808 1074.11 314.101 1038.5L254.638 884.012C249.308 870.164 239.842 858.293 227.527 850.015L90.1423 757.666C58.4719 736.378 48.8279 694.125 68.1252 661.203L151.836 518.391C159.339 505.59 162.718 490.787 161.512 475.998L148.055 311.008C144.953 272.974 171.975 239.09 209.745 233.651L373.593 210.056C388.28 207.941 401.96 201.354 412.771 191.189L533.375 77.799Z" fill="#42D486" stroke="#0B2595" stroke-width="31.3359"/>
<path d="M297.598 414.049C315.359 414.049 318.641 426.984 318.641 454.205V541.466H289.683V452.274C289.683 443.008 287.173 441.077 282.347 441.077C277.52 441.077 275.011 443.008 275.011 452.274V541.466H246.052V415.98H275.011V430.073C278.099 423.123 284.856 414.049 297.598 414.049ZM326.457 499.38V458.066C326.457 426.984 339.391 414.049 362.751 414.049C386.111 414.049 399.045 426.984 399.045 458.066V499.38C399.045 530.462 386.111 543.396 362.751 543.396C339.391 543.396 326.457 530.462 326.457 499.38ZM355.415 499.38C355.415 512.508 356.38 516.369 362.751 516.369C369.122 516.369 370.087 512.508 370.087 499.38V458.066C370.087 444.938 368.929 441.077 362.751 441.077C356.38 441.077 355.415 444.938 355.415 458.066V499.38ZM464.823 443.008H445.517V499.38C445.517 512.508 449.379 514.438 456.715 514.438H464.823V541.466H448.992C421.772 541.466 416.559 530.462 416.559 499.38V443.008H404.976V415.98C416.366 412.698 418.683 398.991 418.49 387.022H447.448C447.448 400.15 444.166 413.47 433.934 415.98H464.823V443.008ZM551.838 468.298C566.51 479.109 575.97 487.603 575.97 507.102C575.97 528.531 565.738 543.396 540.448 543.396C515.158 543.396 503.381 532.392 503.381 497.449H532.339C532.339 512.508 535.042 516.369 540.448 516.369C545.853 516.369 547.012 512.508 547.012 507.102C547.012 501.31 545.081 497.256 527.513 485.094C515.544 476.792 503.381 468.877 503.381 448.413C503.381 428.915 513.999 414.049 538.324 414.049C562.649 414.049 574.039 428.915 574.039 456.135H545.081C545.081 444.938 542.764 441.077 538.324 441.077C533.884 441.077 532.339 444.938 532.339 448.413C532.339 454.977 536.78 457.294 551.838 468.298ZM656.374 522.933C656.374 531.041 656.374 535.288 658.305 541.466H633.208C628.381 538.57 627.416 530.848 627.416 527.373C624.327 534.323 617.57 543.396 604.829 543.396C587.067 543.396 583.786 530.462 583.786 503.241V415.98H612.744V505.171C612.744 514.438 615.254 516.369 620.08 516.369C624.906 516.369 627.416 514.438 627.416 505.171V415.98H656.374V522.933ZM715.736 414.049C733.497 414.049 736.779 426.984 736.779 454.205V503.241C736.779 530.462 733.497 543.396 715.736 543.396C702.994 543.396 696.237 534.323 693.148 527.373C693.148 530.848 692.183 538.57 687.357 541.466H662.259C664.19 535.288 664.19 531.041 664.19 522.933V387.022H693.148V430.073C696.237 423.123 702.994 414.049 715.736 414.049ZM707.82 505.171V452.274C707.82 443.008 705.311 441.077 700.484 441.077C695.658 441.077 693.148 443.008 693.148 452.274V505.171C693.148 514.438 695.658 516.369 700.484 516.369C705.311 516.369 707.82 514.438 707.82 505.171ZM802.556 443.008H783.251V499.38C783.251 512.508 787.112 514.438 794.448 514.438H802.556V541.466H786.726C759.505 541.466 754.292 530.462 754.292 499.38V443.008H742.709V415.98C754.099 412.698 756.416 398.991 756.223 387.022H785.181C785.181 400.15 781.899 413.47 771.667 415.98H802.556V443.008ZM810.293 387.022H839.252V541.466H810.293V387.022ZM883.253 414.049C906.613 414.049 919.548 426.984 919.548 458.066V484.515H875.917V499.38C875.917 512.508 876.882 516.369 883.253 516.369C889.624 516.369 890.589 512.508 890.589 499.38V492.237H919.548V499.38C919.548 530.462 906.613 543.396 883.253 543.396C859.893 543.396 846.959 530.462 846.959 499.38V458.066C846.959 426.984 859.893 414.049 883.253 414.049ZM890.589 465.209V458.066C890.589 444.938 889.431 441.077 883.253 441.077C876.882 441.077 875.917 444.938 875.917 458.066V465.209H890.589ZM308.578 635.049C326.339 635.049 329.621 647.984 329.621 675.205V762.466H300.663V673.274C300.663 664.008 298.153 662.077 293.327 662.077C288.5 662.077 285.991 664.008 285.991 673.274V762.466H257.032V636.98H285.991V651.073C289.079 644.123 295.836 635.049 308.578 635.049ZM337.437 720.38V679.066C337.437 647.984 350.371 635.049 373.731 635.049C397.091 635.049 410.025 647.984 410.025 679.066V720.38C410.025 751.462 397.091 764.396 373.731 764.396C350.371 764.396 337.437 751.462 337.437 720.38ZM366.395 720.38C366.395 733.508 367.36 737.369 373.731 737.369C380.102 737.369 381.067 733.508 381.067 720.38V679.066C381.067 665.938 379.909 662.077 373.731 662.077C367.36 662.077 366.395 665.938 366.395 679.066V720.38ZM475.803 664.008H456.497V720.38C456.497 733.508 460.359 735.438 467.695 735.438H475.803V762.466H459.972C432.752 762.466 427.539 751.462 427.539 720.38V664.008H415.956V636.98C427.346 633.698 429.663 619.991 429.47 608.022H458.428C458.428 621.15 455.146 634.47 444.914 636.98H475.803V664.008ZM562.818 689.298C577.49 700.109 586.95 708.603 586.95 728.102C586.95 749.531 576.718 764.396 551.428 764.396C526.138 764.396 514.361 753.392 514.361 718.449H543.319C543.319 733.508 546.022 737.369 551.428 737.369C556.833 737.369 557.992 733.508 557.992 728.102C557.992 722.31 556.061 718.256 538.493 706.094C526.524 697.792 514.361 689.877 514.361 669.413C514.361 649.915 524.979 635.049 549.304 635.049C573.629 635.049 585.019 649.915 585.019 677.135H556.061C556.061 665.938 553.744 662.077 549.304 662.077C544.864 662.077 543.319 665.938 543.319 669.413C543.319 675.977 547.76 678.294 562.818 689.298ZM594.766 720.38V679.066C594.766 647.984 607.7 635.049 631.06 635.049C654.42 635.049 667.354 647.984 667.354 679.066V720.38C667.354 751.462 654.42 764.396 631.06 764.396C607.7 764.396 594.766 751.462 594.766 720.38ZM623.724 720.38C623.724 733.508 624.689 737.369 631.06 737.369C637.431 737.369 638.396 733.508 638.396 720.38V679.066C638.396 665.938 637.238 662.077 631.06 662.077C624.689 662.077 623.724 665.938 623.724 679.066V720.38ZM727.295 635.049C744.477 635.049 747.759 647.984 747.759 675.205V682.927H718.8V673.274C718.8 664.587 716.291 662.077 711.464 662.077C706.638 662.077 704.128 664.587 704.128 673.274V762.466H675.17V636.98H704.128V651.073C707.217 644.123 713.974 635.049 727.295 635.049ZM807.699 635.049C824.881 635.049 828.163 647.984 828.163 675.205V682.927H799.205V673.274C799.205 664.587 796.695 662.077 791.869 662.077C787.042 662.077 784.533 664.587 784.533 673.274V762.466H755.574V636.98H784.533V651.073C787.622 644.123 794.378 635.049 807.699 635.049ZM879.609 636.98H908.567V758.991C908.567 790.073 903.355 801.077 876.134 801.077H841.77V774.049H868.412C875.748 774.049 879.609 772.119 879.609 758.991V748.373C876.52 755.323 869.763 764.396 857.022 764.396C839.261 764.396 835.979 751.462 835.979 724.241V636.98H864.937V726.171C864.937 735.438 867.447 737.369 872.273 737.369C877.099 737.369 879.609 735.438 879.609 726.171V636.98Z" fill="#0B2595"/>
</svg>
