<svg width="1166" height="1143" viewBox="0 0 1166 1143" fill="none" xmlns="http://www.w3.org/2000/svg">
<path d="M513.443 56.6006C552.446 19.9304 613.246 19.9304 652.25 56.6006L772.853 169.991C779.308 176.061 787.478 179.994 796.248 181.257L960.094 204.851C1013.08 212.481 1050.99 260.017 1046.64 313.374L1033.18 478.364C1032.46 487.195 1034.48 496.034 1038.96 503.678L1122.67 646.49C1149.74 692.675 1136.21 751.951 1091.78 781.816L954.399 874.165C947.045 879.108 941.392 886.196 938.21 894.465L878.748 1048.95C859.518 1098.92 804.738 1125.3 753.687 1109.18L595.829 1059.35C587.379 1056.68 578.313 1056.68 569.864 1059.35L412.005 1109.18C360.954 1125.3 306.175 1098.92 286.945 1048.95L227.482 894.465C224.299 886.196 218.647 879.108 211.294 874.165L73.9088 781.816C29.4792 751.951 15.9503 692.675 43.022 646.49L126.732 503.678C131.213 496.034 133.231 487.195 132.51 478.364L119.053 313.374C114.702 260.017 152.61 212.481 205.597 204.851L369.445 181.257C378.215 179.994 386.383 176.06 392.838 169.991L513.443 56.6006Z" fill="#FFBCFB" stroke="white" stroke-width="58.1953"/>
</svg>
