<svg width="1166" height="1158" viewBox="0 0 1166 1158" fill="none" xmlns="http://www.w3.org/2000/svg">
<path d="M513.443 56.6006C552.446 19.9304 613.247 19.9304 652.25 56.6006L772.854 169.991C779.309 176.061 787.478 179.994 796.248 181.257L960.095 204.851C1013.08 212.481 1050.99 260.017 1046.64 313.374L1033.18 478.364C1032.46 487.195 1034.48 496.034 1038.96 503.678L1122.67 646.49C1149.74 692.675 1136.21 751.951 1091.78 781.816L954.399 874.165C947.046 879.108 941.393 886.196 938.21 894.465L878.748 1048.95C859.518 1098.92 804.739 1125.3 753.688 1109.18L595.829 1059.35C587.38 1056.68 578.314 1056.68 569.864 1059.35L412.006 1109.18C360.955 1125.3 306.175 1098.92 286.945 1048.95L227.482 894.465C224.3 886.196 218.647 879.108 211.294 874.165L73.9092 781.816C29.4796 751.951 15.9507 692.675 43.0225 646.49L126.732 503.678C131.213 496.034 133.231 487.195 132.511 478.364L119.054 313.374C114.702 260.017 152.61 212.481 205.598 204.851L369.445 181.257C378.215 179.994 386.383 176.06 392.839 169.991L513.443 56.6006Z" fill="#FFBCFB" stroke="white" stroke-width="58.1953"/>
<path d="M533.375 77.799C561.177 51.6598 604.516 51.6598 632.318 77.799L752.922 191.189C763.733 201.354 777.413 207.941 792.1 210.056L955.948 233.651C993.718 239.09 1020.74 272.974 1017.64 311.008L1004.18 475.998C1002.98 490.787 1006.35 505.59 1013.86 518.391L1097.57 661.203C1116.87 694.125 1107.22 736.378 1075.55 757.666L938.167 850.015C925.851 858.293 916.385 870.164 911.055 884.012L851.593 1038.5C837.885 1074.11 798.837 1092.92 762.447 1081.43L604.589 1031.6C590.438 1027.13 575.255 1027.13 561.105 1031.6L403.246 1081.43C366.856 1092.92 327.808 1074.11 314.101 1038.5L254.638 884.012C249.308 870.164 239.842 858.293 227.527 850.015L90.1423 757.666C58.4719 736.378 48.8279 694.125 68.1252 661.203L151.836 518.391C159.339 505.59 162.718 490.787 161.512 475.998L148.055 311.008C144.953 272.974 171.975 239.09 209.745 233.651L373.593 210.056C388.28 207.941 401.96 201.354 412.771 191.189L533.375 77.799Z" fill="#42D486" stroke="#0B2595" stroke-width="31.3359"/>
<path d="M373.344 469.671C387.905 480.401 397.293 488.831 397.293 508.182C397.293 529.449 387.139 544.202 362.04 544.202C336.94 544.202 325.253 533.281 325.253 498.602H353.993C353.993 513.547 356.675 517.379 362.04 517.379C367.404 517.379 368.554 513.547 368.554 508.182C368.554 502.434 366.638 498.411 349.203 486.34C337.324 478.101 325.253 470.246 325.253 449.937C325.253 430.585 335.791 415.833 359.932 415.833C384.073 415.833 395.377 430.585 395.377 457.601H366.638C366.638 446.488 364.339 442.656 359.932 442.656C355.525 442.656 353.993 446.488 353.993 449.937C353.993 456.451 358.399 458.75 373.344 469.671ZM460.703 444.572H441.543V500.518C441.543 513.547 445.375 515.463 452.656 515.463H460.703V542.286H444.992C417.977 542.286 412.804 531.365 412.804 500.518V444.572H401.308V417.749C412.612 414.491 414.911 400.888 414.72 389.009H443.459C443.459 402.038 440.202 415.258 430.047 417.749H460.703V444.572ZM504.402 415.833C527.585 415.833 540.422 428.67 540.422 459.517V485.765H497.121V500.518C497.121 513.547 498.079 517.379 504.402 517.379C510.724 517.379 511.682 513.547 511.682 500.518V493.429H540.422V500.518C540.422 531.365 527.585 544.202 504.402 544.202C481.218 544.202 468.381 531.365 468.381 500.518V459.517C468.381 428.67 481.218 415.833 504.402 415.833ZM511.682 466.606V459.517C511.682 446.488 510.533 442.656 504.402 442.656C498.079 442.656 497.121 446.488 497.121 459.517V466.606H511.682ZM599.335 415.833C616.961 415.833 620.219 428.67 620.219 455.685V504.35C620.219 531.365 616.961 544.202 599.335 544.202C586.689 544.202 579.983 535.197 576.918 528.3V580.605H548.178V417.749H576.918V431.735C579.983 424.838 586.689 415.833 599.335 415.833ZM591.479 506.266V453.769C591.479 444.572 588.988 442.656 584.198 442.656C579.409 442.656 576.918 444.572 576.918 453.769V506.266C576.918 515.463 579.409 517.379 584.198 517.379C588.988 517.379 591.479 515.463 591.479 506.266ZM730.603 523.893C730.603 531.94 730.603 536.155 732.519 542.286H707.612C702.822 539.412 701.864 531.748 701.864 528.3C698.798 535.197 692.093 544.202 679.447 544.202C661.82 544.202 658.563 531.365 658.563 504.35V417.749H687.303V506.266C687.303 515.463 689.793 517.379 694.583 517.379C699.373 517.379 701.864 515.463 701.864 506.266V417.749H730.603V523.893ZM789.516 415.833C807.143 415.833 810.4 428.67 810.4 455.685V504.35C810.4 531.365 807.143 544.202 789.516 544.202C776.871 544.202 770.165 535.197 767.1 528.3V580.605H738.36V417.749H767.1V431.735C770.165 424.838 776.871 415.833 789.516 415.833ZM781.661 506.266V453.769C781.661 444.572 779.17 442.656 774.38 442.656C769.59 442.656 767.1 444.572 767.1 453.769V506.266C767.1 515.463 769.59 517.379 774.38 517.379C779.17 517.379 781.661 515.463 781.661 506.266ZM243.585 702.518V661.517C243.585 630.67 256.422 617.833 279.605 617.833C302.788 617.833 315.625 630.67 315.625 661.517V702.518C315.625 733.365 302.788 746.202 279.605 746.202C256.422 746.202 243.585 733.365 243.585 702.518ZM272.325 702.518C272.325 715.547 273.283 719.379 279.605 719.379C285.928 719.379 286.886 715.547 286.886 702.518V661.517C286.886 648.488 285.736 644.656 279.605 644.656C273.283 644.656 272.325 648.488 272.325 661.517V702.518ZM375.113 617.833C392.165 617.833 395.422 630.67 395.422 657.685V665.348H366.683V655.769C366.683 647.147 364.192 644.656 359.402 644.656C354.612 644.656 352.121 647.147 352.121 655.769V744.286H323.382V619.749H352.121V633.735C355.187 626.838 361.893 617.833 375.113 617.833ZM481.858 671.671C496.419 682.401 505.807 690.831 505.807 710.182C505.807 731.449 495.653 746.202 470.553 746.202C445.454 746.202 433.767 735.281 433.767 700.602H462.506C462.506 715.547 465.189 719.379 470.553 719.379C475.918 719.379 477.068 715.547 477.068 710.182C477.068 704.434 475.152 700.411 457.716 688.34C445.837 680.101 433.767 672.246 433.767 651.937C433.767 632.585 444.305 617.833 468.446 617.833C492.587 617.833 503.891 632.585 503.891 659.601H475.152C475.152 648.488 472.853 644.656 468.446 644.656C464.039 644.656 462.506 648.488 462.506 651.937C462.506 658.451 466.913 660.75 481.858 671.671ZM564.72 617.833C582.347 617.833 585.604 630.67 585.604 657.685V744.286H556.865V655.769C556.865 646.572 554.374 644.656 549.584 644.656C544.794 644.656 542.303 646.572 542.303 655.769V744.286H513.564V591.009H542.303V633.735C545.369 626.838 552.075 617.833 564.72 617.833ZM665.401 725.893C665.401 733.94 665.401 738.155 667.317 744.286H642.409C637.619 741.412 636.661 733.748 636.661 730.3C633.596 737.197 626.89 746.202 614.245 746.202C596.618 746.202 593.361 733.365 593.361 706.35V619.749H622.1V708.266C622.1 717.463 624.591 719.379 629.381 719.379C634.171 719.379 636.661 717.463 636.661 708.266V619.749H665.401V725.893ZM732.552 646.572H713.393V702.518C713.393 715.547 717.225 717.463 724.505 717.463H732.552V744.286H716.841C689.826 744.286 684.653 733.365 684.653 702.518V646.572H673.158V619.749C684.462 616.491 686.761 602.888 686.569 591.009H715.309C715.309 604.038 712.052 617.258 701.897 619.749H732.552V646.572ZM842.859 725.893C842.859 733.94 842.859 738.155 844.775 744.286H819.868C815.078 741.412 814.12 733.748 814.12 730.3C811.054 737.197 804.349 746.202 791.703 746.202C774.076 746.202 770.819 733.365 770.819 706.35V619.749H799.559V708.266C799.559 717.463 802.049 719.379 806.839 719.379C811.629 719.379 814.12 717.463 814.12 708.266V619.749H842.859V725.893ZM901.772 617.833C919.399 617.833 922.656 630.67 922.656 657.685V706.35C922.656 733.365 919.399 746.202 901.772 746.202C889.127 746.202 882.421 737.197 879.356 730.3V782.605H850.616V619.749H879.356V633.735C882.421 626.838 889.127 617.833 901.772 617.833ZM893.917 708.266V655.769C893.917 646.572 891.426 644.656 886.636 644.656C881.846 644.656 879.356 646.572 879.356 655.769V708.266C879.356 717.463 881.846 719.379 886.636 719.379C891.426 719.379 893.917 717.463 893.917 708.266Z" fill="#0B2595"/>
</svg>
