<svg width="1159" height="1159" viewBox="0 0 1159 1159" fill="none" xmlns="http://www.w3.org/2000/svg">
<path d="M579.132 27.6602C656.473 27.6602 725.184 64.5546 768.647 121.601C839.114 112.075 913.123 134.113 967.686 187.796L969.083 189.182L969.084 189.184C1023.77 243.874 1046.27 318.547 1036.66 389.616C1093.71 433.078 1130.6 501.789 1130.6 579.132C1130.6 656.473 1093.71 725.185 1036.66 768.648C1046.27 839.717 1023.77 914.39 969.084 969.082L969.082 969.084C914.39 1023.77 839.717 1046.27 768.648 1036.66C725.185 1093.71 656.473 1130.6 579.132 1130.6C501.789 1130.6 433.078 1093.71 389.616 1036.66C318.547 1046.27 243.874 1023.77 189.184 969.084L189.182 969.083C134.493 914.391 111.994 839.717 121.601 768.647C64.5545 725.184 27.6601 656.473 27.6602 579.132C27.6602 501.789 64.5539 433.078 121.601 389.616C111.994 318.546 134.493 243.872 189.183 189.183L190.58 187.797C245.14 134.114 319.149 112.076 389.616 121.601C433.078 64.5541 501.789 27.6602 579.132 27.6602Z" fill="#FF63F6" stroke="white" stroke-width="55.3201"/>
<mask id="path-2-outside-1_59_7248" maskUnits="userSpaceOnUse" x="121.368" y="384.439" width="902" height="388" fill="black">
<rect fill="white" x="121.368" y="384.439" width="902" height="388"/>
<path d="M177.151 551.747C177.151 491.293 215.721 439.866 287.664 439.866C351.948 439.866 391.339 481.445 394.621 531.231H353.042C350.58 504.15 328.423 478.163 287.664 478.163C238.426 478.163 218.183 513.998 218.183 551.747C218.183 590.044 238.426 625.878 287.664 625.878C328.696 625.878 350.854 599.618 353.042 572.263H394.621C391.612 622.322 351.948 664.175 287.664 664.175C215.721 664.175 177.151 612.748 177.151 551.747ZM478.718 480.898C503.884 480.898 508.534 499.226 508.534 537.796V661.439H467.502V535.061C467.502 521.93 463.946 519.195 457.108 519.195C450.269 519.195 446.713 521.93 446.713 535.061V661.439H405.681V442.602H446.713V503.603C451.09 493.755 460.664 480.898 478.718 480.898ZM571.036 480.898C604.135 480.898 622.463 499.226 622.463 543.267V580.743H560.641V601.806C560.641 620.407 562.009 625.878 571.036 625.878C580.063 625.878 581.43 620.407 581.43 601.806V591.685H622.463V601.806C622.463 645.847 604.135 664.175 571.036 664.175C537.936 664.175 519.609 645.847 519.609 601.806V543.267C519.609 499.226 537.936 480.898 571.036 480.898ZM581.43 553.388V543.267C581.43 524.666 579.789 519.195 571.036 519.195C562.009 519.195 560.641 524.666 560.641 543.267V553.388H581.43ZM684.964 480.898C718.063 480.898 736.391 499.226 736.391 543.267V580.743H674.569V601.806C674.569 620.407 675.937 625.878 684.964 625.878C693.991 625.878 695.359 620.407 695.359 601.806V591.685H736.391V601.806C736.391 645.847 718.063 664.175 684.964 664.175C651.865 664.175 633.537 645.847 633.537 601.806V543.267C633.537 499.226 651.865 480.898 684.964 480.898ZM695.359 553.388V543.267C695.359 524.666 693.717 519.195 684.964 519.195C675.937 519.195 674.569 524.666 674.569 543.267V553.388H695.359ZM747.465 442.602H788.497V661.439H747.465V442.602ZM856.337 483.634L829.256 572.537L856.337 661.439H813.937L788.497 572.537L813.937 483.634H856.337ZM926.421 483.634H967.453V656.516C967.453 700.557 960.067 716.149 921.497 716.149H872.805V677.852H910.555C920.95 677.852 926.421 675.117 926.421 656.516V641.471C922.044 651.318 912.47 664.175 894.416 664.175C869.249 664.175 864.599 645.847 864.599 607.277V483.634H905.631V610.013C905.631 623.143 909.187 625.878 916.026 625.878C922.864 625.878 926.421 623.143 926.421 610.013V483.634Z"/>
</mask>
<path d="M177.151 551.747C177.151 491.293 215.721 439.866 287.664 439.866C351.948 439.866 391.339 481.445 394.621 531.231H353.042C350.58 504.15 328.423 478.163 287.664 478.163C238.426 478.163 218.183 513.998 218.183 551.747C218.183 590.044 238.426 625.878 287.664 625.878C328.696 625.878 350.854 599.618 353.042 572.263H394.621C391.612 622.322 351.948 664.175 287.664 664.175C215.721 664.175 177.151 612.748 177.151 551.747ZM478.718 480.898C503.884 480.898 508.534 499.226 508.534 537.796V661.439H467.502V535.061C467.502 521.93 463.946 519.195 457.108 519.195C450.269 519.195 446.713 521.93 446.713 535.061V661.439H405.681V442.602H446.713V503.603C451.09 493.755 460.664 480.898 478.718 480.898ZM571.036 480.898C604.135 480.898 622.463 499.226 622.463 543.267V580.743H560.641V601.806C560.641 620.407 562.009 625.878 571.036 625.878C580.063 625.878 581.43 620.407 581.43 601.806V591.685H622.463V601.806C622.463 645.847 604.135 664.175 571.036 664.175C537.936 664.175 519.609 645.847 519.609 601.806V543.267C519.609 499.226 537.936 480.898 571.036 480.898ZM581.43 553.388V543.267C581.43 524.666 579.789 519.195 571.036 519.195C562.009 519.195 560.641 524.666 560.641 543.267V553.388H581.43ZM684.964 480.898C718.063 480.898 736.391 499.226 736.391 543.267V580.743H674.569V601.806C674.569 620.407 675.937 625.878 684.964 625.878C693.991 625.878 695.359 620.407 695.359 601.806V591.685H736.391V601.806C736.391 645.847 718.063 664.175 684.964 664.175C651.865 664.175 633.537 645.847 633.537 601.806V543.267C633.537 499.226 651.865 480.898 684.964 480.898ZM695.359 553.388V543.267C695.359 524.666 693.717 519.195 684.964 519.195C675.937 519.195 674.569 524.666 674.569 543.267V553.388H695.359ZM747.465 442.602H788.497V661.439H747.465V442.602ZM856.337 483.634L829.256 572.537L856.337 661.439H813.937L788.497 572.537L813.937 483.634H856.337ZM926.421 483.634H967.453V656.516C967.453 700.557 960.067 716.149 921.497 716.149H872.805V677.852H910.555C920.95 677.852 926.421 675.117 926.421 656.516V641.471C922.044 651.318 912.47 664.175 894.416 664.175C869.249 664.175 864.599 645.847 864.599 607.277V483.634H905.631V610.013C905.631 623.143 909.187 625.878 916.026 625.878C922.864 625.878 926.421 623.143 926.421 610.013V483.634Z" fill="#FFF18C"/>
<path d="M394.621 531.231V586.551H453.709L449.822 527.591L394.621 531.231ZM353.042 531.231L297.949 536.239L302.523 586.551H353.042V531.231ZM353.042 572.263V516.943H301.971L297.898 567.852L353.042 572.263ZM394.621 572.263L449.842 575.582L453.366 516.943H394.621V572.263ZM177.151 551.747H232.471C232.471 533.016 238.4 519.071 246.285 510.434C253.484 502.548 265.763 495.186 287.664 495.186V439.866V384.546C237.623 384.546 194.645 402.898 164.573 435.839C135.187 468.029 121.831 510.024 121.831 551.747H177.151ZM287.664 439.866V495.186C324.34 495.186 338.155 515.665 339.421 534.871L394.621 531.231L449.822 527.591C444.523 447.226 379.556 384.546 287.664 384.546V439.866ZM394.621 531.231V475.911H353.042V531.231V586.551H394.621V531.231ZM353.042 531.231L408.135 526.223C403.033 470.099 356.481 422.843 287.664 422.843V478.163V533.483C291.934 533.483 294.499 534.153 295.789 534.623C297.059 535.086 297.543 535.512 297.636 535.597C297.802 535.746 297.921 535.932 297.949 536.239L353.042 531.231ZM287.664 478.163V422.843C248.231 422.843 214.471 437.93 191.682 465.722C170.266 491.838 162.863 523.819 162.863 551.747H218.183H273.503C273.503 541.925 276.221 537.114 277.237 535.876C277.575 535.463 277.886 535.18 278.639 534.843C279.484 534.465 282.136 533.483 287.664 533.483V478.163ZM218.183 551.747H162.863C162.863 579.792 170.188 611.908 191.597 638.147C214.402 666.097 248.22 681.198 287.664 681.198V625.878V570.558C282.134 570.558 279.5 569.576 278.68 569.208C277.956 568.883 277.66 568.615 277.322 568.201C276.3 566.948 273.503 561.998 273.503 551.747H218.183ZM287.664 625.878V681.198C356.954 681.198 403.651 633.358 408.186 576.675L353.042 572.263L297.898 567.852C297.87 568.211 297.741 568.364 297.631 568.465C297.562 568.528 297.102 568.946 295.841 569.408C294.559 569.878 291.981 570.558 287.664 570.558V625.878ZM353.042 572.263V627.583H394.621V572.263V516.943H353.042V572.263ZM394.621 572.263L339.401 568.944C338.243 588.208 324.299 608.855 287.664 608.855V664.175V719.495C379.597 719.495 444.982 656.437 449.842 575.582L394.621 572.263ZM287.664 664.175V608.855C265.769 608.855 253.529 601.5 246.347 593.607C238.469 584.948 232.471 570.866 232.471 551.747H177.151H121.831C121.831 593.629 135.118 635.761 164.511 668.066C194.6 701.136 237.617 719.495 287.664 719.495V664.175ZM508.534 661.439V716.76H563.854V661.439H508.534ZM467.502 661.439H412.182V716.76H467.502V661.439ZM446.713 661.439V716.76H502.033V661.439H446.713ZM405.681 661.439H350.361V716.76H405.681V661.439ZM405.681 442.602V387.282H350.361V442.602H405.681ZM446.713 442.602H502.033V387.282H446.713V442.602ZM446.713 503.603H391.393L497.265 526.07L446.713 503.603ZM478.718 480.898V536.218C478.549 536.218 473.073 536.209 466.1 532.138C458.487 527.693 454.437 521.563 452.771 517.926C451.53 515.217 451.965 514.715 452.464 519.014C452.931 523.039 453.214 528.962 453.214 537.796H508.534H563.854C563.854 519.74 563.384 493.726 553.356 471.84C547.381 458.801 537.45 445.678 521.887 436.592C506.965 427.879 491.47 425.578 478.718 425.578V480.898ZM508.534 537.796H453.214V661.439H508.534H563.854V537.796H508.534ZM508.534 661.439V606.119H467.502V661.439V716.76H508.534V661.439ZM467.502 661.439H522.822V535.061H467.502H412.182V661.439H467.502ZM467.502 535.061H522.822C522.822 527.028 522.491 506.833 509.126 489.012C491.676 465.746 466.754 463.875 457.108 463.875V519.195V574.515C455.678 574.515 450.115 574.457 443.043 571.936C434.847 569.015 426.716 563.533 420.613 555.396C415.136 548.093 413.312 541.333 412.694 538.378C412.075 535.423 412.182 533.933 412.182 535.061H467.502ZM457.108 519.195V463.875C447.461 463.875 422.539 465.746 405.09 489.012C391.724 506.833 391.393 527.028 391.393 535.061H446.713H502.033C502.033 533.933 502.14 535.423 501.522 538.378C500.903 541.333 499.079 548.093 493.602 555.396C487.499 563.533 479.368 569.015 471.172 571.936C464.101 574.457 458.537 574.515 457.108 574.515V519.195ZM446.713 535.061H391.393V661.439H446.713H502.033V535.061H446.713ZM446.713 661.439V606.119H405.681V661.439V716.76H446.713V661.439ZM405.681 661.439H461.001V442.602H405.681H350.361V661.439H405.681ZM405.681 442.602V497.922H446.713V442.602V387.282H405.681V442.602ZM446.713 442.602H391.393V503.603H446.713H502.033V442.602H446.713ZM446.713 503.603L497.265 526.07C497.253 526.097 496.448 528.114 493.543 530.599C491.911 531.994 489.628 533.51 486.718 534.638C483.74 535.793 480.933 536.218 478.718 536.218V480.898V425.578C428.453 425.578 404.268 462.895 396.161 481.135L446.713 503.603ZM622.463 580.743V636.063H677.783V580.743H622.463ZM560.641 580.743V525.423H505.321V580.743H560.641ZM581.43 591.685V536.365H526.11V591.685H581.43ZM622.463 591.685H677.783V536.365H622.463V591.685ZM581.43 553.388V608.708H636.751V553.388H581.43ZM560.641 553.388H505.321V608.708H560.641V553.388ZM571.036 480.898V536.218C574.369 536.218 574.805 536.699 573.493 536.204C572.786 535.937 571.733 535.444 570.528 534.617C569.31 533.78 568.213 532.789 567.31 531.744C565.444 529.585 565.39 528.371 565.846 529.984C566.353 531.777 567.143 535.891 567.143 543.267H622.463H677.783C677.783 515.026 672.132 483.823 651.013 459.391C628.451 433.29 597.737 425.578 571.036 425.578V480.898ZM622.463 543.267H567.143V580.743H622.463H677.783V543.267H622.463ZM622.463 580.743V525.423H560.641V580.743V636.063H622.463V580.743ZM560.641 580.743H505.321V601.806H560.641H615.961V580.743H560.641ZM560.641 601.806H505.321C505.321 606.797 505.398 612.57 505.879 618.158C506.319 623.267 507.357 631.989 511.057 641.281C515.296 651.929 523.477 664.324 538.031 672.692C551.209 680.268 563.958 681.198 571.036 681.198V625.878V570.558C573.599 570.558 582.793 570.805 593.176 576.774C604.934 583.534 611.08 593.4 613.849 600.354C616.079 605.954 616.211 609.82 616.112 608.671C616.054 608.003 615.961 606.116 615.961 601.806H560.641ZM571.036 625.878V681.198C578.113 681.198 590.863 680.268 604.041 672.692C618.595 664.324 626.775 651.929 631.014 641.281C634.714 631.989 635.752 623.267 636.192 618.158C636.673 612.57 636.751 606.797 636.751 601.806H581.43H526.11C526.11 606.116 526.017 608.003 525.959 608.671C525.861 609.82 525.993 605.954 528.222 600.354C530.991 593.4 537.137 583.534 548.895 576.774C559.278 570.805 568.472 570.558 571.036 570.558V625.878ZM581.43 601.806H636.751V591.685H581.43H526.11V601.806H581.43ZM581.43 591.685V647.005H622.463V591.685V536.365H581.43V591.685ZM622.463 591.685H567.143V601.806H622.463H677.783V591.685H622.463ZM622.463 601.806H567.143C567.143 609.182 566.353 613.296 565.846 615.089C565.39 616.703 565.444 615.488 567.31 613.329C568.213 612.284 569.31 611.294 570.528 610.457C571.733 609.629 572.786 609.137 573.493 608.87C574.805 608.374 574.369 608.855 571.036 608.855V664.175V719.495C597.737 719.495 628.451 711.783 651.013 685.683C672.132 661.25 677.783 630.048 677.783 601.806H622.463ZM571.036 664.175V608.855C567.702 608.855 567.266 608.374 568.579 608.87C569.285 609.137 570.339 609.629 571.543 610.457C572.761 611.294 573.858 612.284 574.762 613.329C576.628 615.488 576.681 616.703 576.226 615.089C575.719 613.296 574.929 609.182 574.929 601.806H519.609H464.289C464.289 630.048 469.939 661.25 491.059 685.683C513.62 711.783 544.334 719.495 571.036 719.495V664.175ZM519.609 601.806H574.929V543.267H519.609H464.289V601.806H519.609ZM519.609 543.267H574.929C574.929 535.891 575.719 531.777 576.226 529.984C576.681 528.371 576.628 529.585 574.762 531.744C573.858 532.789 572.761 533.78 571.543 534.617C570.339 535.444 569.285 535.937 568.579 536.204C567.266 536.699 567.702 536.218 571.036 536.218V480.898V425.578C544.334 425.578 513.62 433.29 491.059 459.391C469.939 483.823 464.289 515.026 464.289 543.267H519.609ZM581.43 553.388H636.751V543.267H581.43H526.11V553.388H581.43ZM581.43 543.267H636.751C636.751 538.119 636.651 532.256 636.12 526.541C635.631 521.278 634.503 512.603 630.747 503.383C626.488 492.93 618.393 480.776 604.117 472.492C591.023 464.894 578.323 463.875 571.036 463.875V519.195V574.515C568.125 574.515 558.913 574.179 548.589 568.189C537.082 561.512 531.038 551.888 528.284 545.128C526.033 539.601 525.862 535.782 525.954 536.775C526.005 537.318 526.11 539.115 526.11 543.267H581.43ZM571.036 519.195V463.875C563.958 463.875 551.209 464.805 538.03 472.382C523.477 480.749 515.296 493.145 511.057 503.792C507.357 513.084 506.319 521.806 505.879 526.915C505.398 532.504 505.321 538.277 505.321 543.267H560.641H615.961C615.961 538.957 616.054 537.071 616.112 536.402C616.211 535.254 616.079 539.119 613.849 544.719C611.08 551.674 604.934 561.539 593.176 568.299C582.793 574.269 573.599 574.515 571.036 574.515V519.195ZM560.641 543.267H505.321V553.388H560.641H615.961V543.267H560.641ZM560.641 553.388V608.708H581.43V553.388V498.068H560.641V553.388ZM736.391 580.743V636.063H791.711V580.743H736.391ZM674.569 580.743V525.423H619.249V580.743H674.569ZM695.359 591.685V536.365H640.039V591.685H695.359ZM736.391 591.685H791.711V536.365H736.391V591.685ZM695.359 553.388V608.708H750.679V553.388H695.359ZM674.569 553.388H619.249V608.708H674.569V553.388ZM684.964 480.898V536.218C688.297 536.218 688.733 536.699 687.421 536.204C686.714 535.937 685.661 535.444 684.457 534.617C683.238 533.78 682.141 532.789 681.238 531.744C679.372 529.585 679.318 528.371 679.774 529.984C680.281 531.777 681.071 535.891 681.071 543.267H736.391H791.711C791.711 515.026 786.06 483.823 764.941 459.391C742.38 433.29 711.666 425.578 684.964 425.578V480.898ZM736.391 543.267H681.071V580.743H736.391H791.711V543.267H736.391ZM736.391 580.743V525.423H674.569V580.743V636.063H736.391V580.743ZM674.569 580.743H619.249V601.806H674.569H729.889V580.743H674.569ZM674.569 601.806H619.249C619.249 606.797 619.326 612.57 619.807 618.158C620.247 623.267 621.285 631.989 624.985 641.281C629.224 651.929 637.405 664.324 651.959 672.692C665.137 680.268 677.887 681.198 684.964 681.198V625.878V570.558C687.528 570.558 696.721 570.805 707.104 576.774C718.862 583.534 725.008 593.4 727.777 600.354C730.007 605.954 730.139 609.82 730.04 608.671C729.983 608.003 729.889 606.116 729.889 601.806H674.569ZM684.964 625.878V681.198C692.041 681.198 704.791 680.268 717.969 672.692C732.523 664.324 740.703 651.929 744.943 641.281C748.642 631.989 749.68 623.267 750.12 618.158C750.601 612.57 750.679 606.797 750.679 601.806H695.359H640.039C640.039 606.116 639.945 608.003 639.888 608.671C639.789 609.82 639.921 605.954 642.15 600.354C644.919 593.4 651.065 583.534 662.824 576.774C673.207 570.805 682.4 570.558 684.964 570.558V625.878ZM695.359 601.806H750.679V591.685H695.359H640.039V601.806H695.359ZM695.359 591.685V647.005H736.391V591.685V536.365H695.359V591.685ZM736.391 591.685H681.071V601.806H736.391H791.711V591.685H736.391ZM736.391 601.806H681.071C681.071 609.182 680.281 613.296 679.774 615.089C679.318 616.703 679.372 615.488 681.238 613.329C682.141 612.284 683.238 611.294 684.457 610.457C685.661 609.629 686.714 609.137 687.421 608.87C688.733 608.374 688.297 608.855 684.964 608.855V664.175V719.495C711.666 719.495 742.38 711.783 764.941 685.683C786.06 661.25 791.711 630.048 791.711 601.806H736.391ZM684.964 664.175V608.855C681.63 608.855 681.195 608.374 682.507 608.87C683.213 609.137 684.267 609.629 685.471 610.457C686.689 611.294 687.786 612.284 688.69 613.329C690.556 615.488 690.609 616.703 690.154 615.089C689.647 613.296 688.857 609.182 688.857 601.806H633.537H578.217C578.217 630.048 583.867 661.25 604.987 685.683C627.548 711.783 658.262 719.495 684.964 719.495V664.175ZM633.537 601.806H688.857V543.267H633.537H578.217V601.806H633.537ZM633.537 543.267H688.857C688.857 535.891 689.647 531.777 690.154 529.984C690.609 528.371 690.556 529.585 688.69 531.744C687.786 532.789 686.689 533.78 685.471 534.617C684.267 535.444 683.213 535.937 682.507 536.204C681.195 536.699 681.63 536.218 684.964 536.218V480.898V425.578C658.262 425.578 627.548 433.29 604.987 459.391C583.867 483.823 578.217 515.026 578.217 543.267H633.537ZM695.359 553.388H750.679V543.267H695.359H640.039V553.388H695.359ZM695.359 543.267H750.679C750.679 538.119 750.579 532.256 750.048 526.541C749.559 521.278 748.431 512.603 744.675 503.383C740.417 492.93 732.321 480.776 718.045 472.492C704.951 464.894 692.251 463.875 684.964 463.875V519.195V574.515C682.053 574.515 672.841 574.179 662.517 568.189C651.01 561.512 644.967 551.888 642.212 545.128C639.961 539.601 639.79 535.782 639.883 536.775C639.933 537.318 640.039 539.115 640.039 543.267H695.359ZM684.964 519.195V463.875C677.887 463.875 665.137 464.805 651.959 472.382C637.405 480.749 629.224 493.145 624.985 503.792C621.285 513.084 620.247 521.806 619.807 526.915C619.326 532.504 619.249 538.277 619.249 543.267H674.569H729.889C729.889 538.957 729.983 537.071 730.04 536.402C730.139 535.254 730.007 539.119 727.777 544.719C725.008 551.674 718.862 561.539 707.104 568.299C696.721 574.269 687.528 574.515 684.964 574.515V519.195ZM674.569 543.267H619.249V553.388H674.569H729.889V543.267H674.569ZM674.569 553.388V608.708H695.359V553.388V498.068H674.569V553.388ZM747.465 442.602V387.282H692.145V442.602H747.465ZM788.497 442.602H843.817V387.282H788.497V442.602ZM788.497 661.439V716.76H843.817V661.439H788.497ZM747.465 661.439H692.145V716.76H747.465V661.439ZM856.337 483.634L909.256 499.754L931.018 428.314H856.337V483.634ZM829.256 572.537L776.336 556.417L771.426 572.537L776.336 588.657L829.256 572.537ZM856.337 661.439V716.76H931.018L909.256 645.319L856.337 661.439ZM813.937 661.439L760.752 676.659L772.227 716.76H813.937V661.439ZM788.497 572.537L735.312 557.317L730.957 572.537L735.312 587.756L788.497 572.537ZM813.937 483.634V428.314H772.227L760.752 468.415L813.937 483.634ZM747.465 442.602V497.922H788.497V442.602V387.282H747.465V442.602ZM788.497 442.602H733.177V661.439H788.497H843.817V442.602H788.497ZM788.497 661.439V606.119H747.465V661.439V716.76H788.497V661.439ZM747.465 661.439H802.785V442.602H747.465H692.145V661.439H747.465ZM856.337 483.634L803.418 467.514L776.336 556.417L829.256 572.537L882.175 588.657L909.256 499.754L856.337 483.634ZM829.256 572.537L776.336 588.657L803.418 677.559L856.337 661.439L909.256 645.319L882.175 556.417L829.256 572.537ZM856.337 661.439V606.119H813.937V661.439V716.76H856.337V661.439ZM813.937 661.439L867.122 646.22L841.683 557.317L788.497 572.537L735.312 587.756L760.752 676.659L813.937 661.439ZM788.497 572.537L841.683 587.756L867.122 498.853L813.937 483.634L760.752 468.415L735.312 557.317L788.497 572.537ZM813.937 483.634V538.954H856.337V483.634V428.314H813.937V483.634ZM926.421 483.634V428.314H871.1V483.634H926.421ZM967.453 483.634H1022.77V428.314H967.453V483.634ZM872.805 716.149H817.485V771.469H872.805V716.149ZM872.805 677.852V622.532H817.485V677.852H872.805ZM926.421 641.471H981.741L875.868 619.003L926.421 641.471ZM864.599 483.634V428.314H809.279V483.634H864.599ZM905.631 483.634H960.951V428.314H905.631V483.634ZM926.421 483.634V538.954H967.453V483.634V428.314H926.421V483.634ZM967.453 483.634H912.133V656.516H967.453H1022.77V483.634H967.453ZM967.453 656.516H912.133C912.133 661.301 912.031 665.204 911.838 668.423C911.645 671.662 911.381 673.823 911.151 675.185C910.629 678.273 910.58 675.407 913.812 670.849C915.532 668.423 917.771 666.106 920.407 664.184C922.979 662.31 925.24 661.314 926.604 660.835C927.878 660.387 928.275 660.421 927.327 660.546C926.376 660.671 924.53 660.829 921.497 660.829V716.149V771.469C945.663 771.469 981.267 766.997 1004.06 734.846C1013.96 720.885 1018.17 705.863 1020.24 693.641C1022.31 681.43 1022.77 668.576 1022.77 656.516H967.453ZM921.497 716.149V660.829H872.805V716.149V771.469H921.497V716.149ZM872.805 716.149H928.125V677.852H872.805H817.485V716.149H872.805ZM872.805 677.852V733.172H910.555V677.852V622.532H872.805V677.852ZM910.555 677.852V733.172C917.207 733.172 943.852 733.342 963.784 710.854C981.097 691.321 981.741 667.178 981.741 656.516H926.421H871.1C871.1 658.881 870.884 657.875 871.552 655.035C872.264 652.006 874.475 644.812 880.987 637.465C895.586 620.995 914.297 622.532 910.555 622.532V677.852ZM926.421 656.516H981.741V641.471H926.421H871.1V656.516H926.421ZM926.421 641.471L875.868 619.003C875.88 618.976 876.686 616.959 879.591 614.474C881.222 613.079 883.506 611.563 886.415 610.435C889.394 609.28 892.201 608.855 894.416 608.855V664.175V719.495C944.68 719.495 968.866 682.179 976.973 663.938L926.421 641.471ZM894.416 664.175V608.855C894.584 608.855 900.061 608.865 907.033 612.935C914.646 617.38 918.696 623.51 920.362 627.147C921.604 629.856 921.169 630.358 920.67 626.059C920.202 622.034 919.919 616.111 919.919 607.277H864.599H809.279C809.279 625.333 809.75 651.347 819.777 673.233C825.752 686.272 835.683 699.395 851.246 708.482C866.169 717.194 881.664 719.495 894.416 719.495V664.175ZM864.599 607.277H919.919V483.634H864.599H809.279V607.277H864.599ZM864.599 483.634V538.954H905.631V483.634V428.314H864.599V483.634ZM905.631 483.634H850.311V610.013H905.631H960.951V483.634H905.631ZM905.631 610.013H850.311C850.311 618.045 850.642 638.24 864.008 656.061C881.457 679.327 906.38 681.198 916.026 681.198V625.878V570.558C917.455 570.558 923.019 570.616 930.09 573.137C938.286 576.058 946.417 581.541 952.52 589.677C957.997 596.98 959.821 603.741 960.44 606.695C961.058 609.65 960.951 611.14 960.951 610.013H905.631ZM916.026 625.878V681.198C925.672 681.198 950.594 679.327 968.044 656.061C981.409 638.24 981.741 618.045 981.741 610.013H926.421H871.1C871.1 611.14 870.993 609.65 871.612 606.695C872.23 603.741 874.054 596.98 879.532 589.677C885.634 581.541 893.765 576.058 901.962 573.137C909.033 570.616 914.596 570.558 916.026 570.558V625.878ZM926.421 610.013H981.741V483.634H926.421H871.1V610.013H926.421Z" fill="white" mask="url(#path-2-outside-1_59_7248)"/>
<path d="M579.132 69.4668C648.376 69.4668 709.261 105.31 744.229 159.523L749.535 167.749L759.103 165.684C821.667 152.18 889.487 169.505 938.371 217.603L939.521 218.744C988.483 267.709 1006.19 336.105 992.582 399.164L990.518 408.731L998.743 414.036C1052.96 449.002 1088.8 509.885 1088.8 579.132C1088.8 648.376 1052.95 709.261 998.742 744.229L990.518 749.534L992.582 759.102C1006.19 822.158 988.484 890.554 939.522 939.521C890.555 988.484 822.159 1006.19 759.102 992.582L749.534 990.518L744.229 998.742C709.261 1052.95 648.376 1088.8 579.132 1088.8C509.885 1088.8 449.002 1052.96 414.036 998.743L408.731 990.518L399.164 992.582C336.598 1006.08 268.777 988.758 219.895 940.663L218.744 939.521C169.78 890.554 152.074 822.159 165.684 759.103L167.749 749.535L159.523 744.229C105.31 709.261 69.4668 648.376 69.4668 579.132C69.4669 509.885 105.311 449.002 159.523 414.036L167.749 408.731L165.684 399.164C152.18 336.598 169.505 268.777 217.603 219.896L218.744 218.744C267.709 169.78 336.105 152.074 399.164 165.684L408.731 167.748L414.036 159.522C449.002 105.31 509.886 69.4669 579.132 69.4668Z" fill="#FF63F6" stroke="#0B2595" stroke-width="28.2927"/>
<path d="M377.301 462.67C391.33 473.007 400.375 481.129 400.375 499.774C400.375 520.264 390.592 534.478 366.409 534.478C342.227 534.478 330.967 523.956 330.967 490.544H358.656C358.656 504.942 361.241 508.634 366.409 508.634C371.578 508.634 372.686 504.942 372.686 499.774C372.686 494.236 370.84 490.359 354.042 478.73C342.597 470.792 330.967 463.224 330.967 443.656C330.967 425.012 341.12 410.798 364.379 410.798C387.638 410.798 398.529 425.012 398.529 451.04H370.84C370.84 440.334 368.625 436.642 364.379 436.642C360.133 436.642 358.656 440.334 358.656 443.656C358.656 449.933 362.902 452.148 377.301 462.67ZM461.468 438.488H443.008V492.39C443.008 504.942 446.7 506.788 453.715 506.788H461.468V532.632H446.331C420.303 532.632 415.319 522.11 415.319 492.39V438.488H404.243V412.644C415.134 409.506 417.349 396.4 417.165 384.955H444.854C444.854 397.507 441.716 410.244 431.933 412.644H461.468V438.488ZM503.57 410.798C525.906 410.798 538.274 423.166 538.274 452.886V478.176H496.556V492.39C496.556 504.942 497.479 508.634 503.57 508.634C509.662 508.634 510.585 504.942 510.585 492.39V485.56H538.274V492.39C538.274 522.11 525.906 534.478 503.57 534.478C481.234 534.478 468.866 522.11 468.866 492.39V452.886C468.866 423.166 481.234 410.798 503.57 410.798ZM510.585 459.716V452.886C510.585 440.334 509.477 436.642 503.57 436.642C497.479 436.642 496.556 440.334 496.556 452.886V459.716H510.585ZM595.035 410.798C612.018 410.798 615.156 423.166 615.156 449.194V496.082C615.156 522.11 612.018 534.478 595.035 534.478C582.852 534.478 576.391 525.802 573.437 519.156V569.551H545.748V412.644H573.437V426.12C576.391 419.474 582.852 410.798 595.035 410.798ZM587.466 497.928V447.348C587.466 438.488 585.067 436.642 580.452 436.642C575.837 436.642 573.437 438.488 573.437 447.348V497.928C573.437 506.788 575.837 508.634 580.452 508.634C585.067 508.634 587.466 506.788 587.466 497.928ZM721.508 514.911C721.508 522.664 721.508 526.725 723.354 532.632H699.356C694.741 529.863 693.818 522.479 693.818 519.156C690.865 525.802 684.404 534.478 672.221 534.478C655.238 534.478 652.1 522.11 652.1 496.082V412.644H679.789V497.928C679.789 506.788 682.189 508.634 686.804 508.634C691.419 508.634 693.818 506.788 693.818 497.928V412.644H721.508V514.911ZM778.268 410.798C795.251 410.798 798.389 423.166 798.389 449.194V496.082C798.389 522.11 795.251 534.478 778.268 534.478C766.085 534.478 759.624 525.802 756.671 519.156V569.551H728.981V412.644H756.671V426.12C759.624 419.474 766.085 410.798 778.268 410.798ZM770.7 497.928V447.348C770.7 438.488 768.3 436.642 763.685 436.642C759.07 436.642 756.671 438.488 756.671 447.348V497.928C756.671 506.788 759.07 508.634 763.685 508.634C768.3 508.634 770.7 506.788 770.7 497.928ZM252.283 695.39V655.886C252.283 626.166 264.651 613.798 286.987 613.798C309.323 613.798 321.691 626.166 321.691 655.886V695.39C321.691 725.11 309.323 737.478 286.987 737.478C264.651 737.478 252.283 725.11 252.283 695.39ZM279.972 695.39C279.972 707.942 280.895 711.634 286.987 711.634C293.079 711.634 294.002 707.942 294.002 695.39V655.886C294.002 643.334 292.894 639.642 286.987 639.642C280.895 639.642 279.972 643.334 279.972 655.886V695.39ZM379.005 613.798C395.434 613.798 398.573 626.166 398.573 652.194V659.578H370.883V650.348C370.883 642.042 368.483 639.642 363.868 639.642C359.253 639.642 356.854 642.042 356.854 650.348V735.632H329.164V615.644H356.854V629.12C359.807 622.474 366.268 613.798 379.005 613.798ZM481.85 665.67C495.879 676.007 504.924 684.129 504.924 702.774C504.924 723.264 495.141 737.478 470.959 737.478C446.777 737.478 435.516 726.956 435.516 693.544H463.206C463.206 707.942 465.79 711.634 470.959 711.634C476.127 711.634 477.235 707.942 477.235 702.774C477.235 697.236 475.389 693.359 458.591 681.73C447.146 673.792 435.516 666.224 435.516 646.656C435.516 628.012 445.669 613.798 468.928 613.798C492.187 613.798 503.079 628.012 503.079 654.04H475.389C475.389 643.334 473.174 639.642 468.928 639.642C464.682 639.642 463.206 643.334 463.206 646.656C463.206 652.933 467.451 655.148 481.85 665.67ZM561.685 613.798C578.668 613.798 581.806 626.166 581.806 652.194V735.632H554.117V650.348C554.117 641.488 551.717 639.642 547.102 639.642C542.487 639.642 540.087 641.488 540.087 650.348V735.632H512.398V587.955H540.087V629.12C543.041 622.474 549.502 613.798 561.685 613.798ZM658.687 717.911C658.687 725.664 658.687 729.725 660.533 735.632H636.536C631.921 732.863 630.998 725.479 630.998 722.156C628.044 728.802 621.584 737.478 609.4 737.478C592.417 737.478 589.279 725.11 589.279 699.082V615.644H616.969V700.928C616.969 709.788 619.368 711.634 623.983 711.634C628.598 711.634 630.998 709.788 630.998 700.928V615.644H658.687V717.911ZM723.386 641.488H704.926V695.39C704.926 707.942 708.618 709.788 715.633 709.788H723.386V735.632H708.249C682.221 735.632 677.236 725.11 677.236 695.39V641.488H666.161V615.644C677.052 612.506 679.267 599.4 679.082 587.955H706.772C706.772 600.507 703.634 613.244 693.85 615.644H723.386V641.488ZM829.662 717.911C829.662 725.664 829.662 729.725 831.508 735.632H807.511C802.896 732.863 801.973 725.479 801.973 722.156C799.02 728.802 792.559 737.478 780.375 737.478C763.392 737.478 760.254 725.11 760.254 699.082V615.644H787.944V700.928C787.944 709.788 790.343 711.634 794.958 711.634C799.573 711.634 801.973 709.788 801.973 700.928V615.644H829.662V717.911ZM886.423 613.798C903.406 613.798 906.544 626.166 906.544 652.194V699.082C906.544 725.11 903.406 737.478 886.423 737.478C874.24 737.478 867.779 728.802 864.825 722.156V772.551H837.136V615.644H864.825V629.12C867.779 622.474 874.24 613.798 886.423 613.798ZM878.855 700.928V650.348C878.855 641.488 876.455 639.642 871.84 639.642C867.225 639.642 864.825 641.488 864.825 650.348V700.928C864.825 709.788 867.225 711.634 871.84 711.634C876.455 711.634 878.855 709.788 878.855 700.928Z" fill="white"/>
</svg>
