<svg width="1124" height="1117" viewBox="0 0 1124 1117" fill="none" xmlns="http://www.w3.org/2000/svg">
<path d="M498.204 60.6631C529.698 17.4986 594.101 17.4986 625.595 60.6631L697.7 159.487C703.031 166.794 712.252 170.15 721.032 167.979L839.791 138.624C891.662 125.802 940.998 167.199 937.378 220.509L929.091 342.561C928.478 351.585 933.385 360.083 941.506 364.064L1051.35 417.914L1052.47 418.473C1099.5 442.424 1110.22 505.158 1073.47 543.368L988.669 631.539C982.399 638.058 980.695 647.722 984.357 655.992L1033.89 767.849C1055.52 816.706 1023.32 872.479 970.193 878.172L848.557 891.205C839.563 892.169 832.047 898.477 829.536 907.166L795.579 1024.69C780.747 1076.02 720.229 1098.05 675.871 1068.26L574.314 1000.06C566.806 995.016 556.993 995.016 549.484 1000.06L447.928 1068.26C403.57 1098.05 343.051 1076.02 328.22 1024.69L294.264 907.166C291.753 898.477 284.236 892.169 275.242 891.205L153.605 878.172C100.477 872.479 68.2757 816.706 89.9102 767.849L139.442 655.992C143.105 647.722 141.4 638.058 135.13 631.539L50.3281 543.368C13.2886 504.857 24.4719 441.434 72.4492 417.914L182.293 364.064C190.414 360.083 195.321 351.585 194.708 342.561L186.421 220.509C182.801 167.199 232.136 125.802 284.008 138.624L402.767 167.979C411.547 170.15 420.768 166.794 426.1 159.487L498.204 60.6631Z" fill="#FFDF00" stroke="white" stroke-width="56.5786"/>
<path d="M521.057 77.3368C541.252 49.6592 582.547 49.6592 602.742 77.3368L674.847 176.161C686.951 192.75 707.886 200.37 727.821 195.442L846.58 166.087C879.841 157.865 911.475 184.409 909.154 218.592L900.866 340.645C899.475 361.132 910.615 380.427 929.053 389.466L1038.9 443.315C1069.66 458.396 1076.83 499.064 1053.08 523.758L968.28 611.929C954.045 626.729 950.176 648.67 958.49 667.446L1008.02 779.303C1021.89 810.631 1001.25 846.394 967.18 850.044L845.543 863.077C825.125 865.264 808.058 879.585 802.358 899.313L768.401 1016.84C758.891 1049.75 720.086 1063.88 691.643 1044.78L590.086 976.574C573.039 965.125 550.76 965.125 533.713 976.574L432.156 1044.78C403.713 1063.88 364.908 1049.75 355.398 1016.84L321.441 899.313C315.741 879.585 298.674 865.264 278.256 863.077L156.619 850.044C122.552 846.394 101.905 810.631 115.777 779.303L165.309 667.446C173.623 648.67 169.755 626.729 155.519 611.929L70.7174 523.758C46.967 499.064 54.1379 458.396 84.9018 443.315L194.746 389.466C213.184 380.427 224.324 361.132 222.933 340.645L214.645 218.592C212.324 184.409 243.958 157.865 277.219 166.087L395.978 195.442C415.913 200.37 436.848 192.75 448.952 176.161L521.057 77.3368Z" fill="#FFDF00" stroke="#0B2595" stroke-width="30.4654"/>
<path d="M372.225 452.808C386.255 463.145 395.3 471.267 395.3 489.911C395.3 510.402 385.516 524.615 361.334 524.615C337.152 524.615 325.892 514.094 325.892 480.682H353.581C353.581 495.08 356.166 498.772 361.334 498.772C366.503 498.772 367.611 495.08 367.611 489.911C367.611 484.374 365.765 480.497 348.966 468.867C337.521 460.93 325.892 453.361 325.892 433.794C325.892 415.15 336.045 400.936 359.304 400.936C382.563 400.936 393.454 415.15 393.454 441.178H365.765C365.765 430.471 363.549 426.779 359.304 426.779C355.058 426.779 353.581 430.471 353.581 433.794C353.581 440.07 357.827 442.286 372.225 452.808ZM456.393 428.625H437.933V482.528C437.933 495.08 441.625 496.926 448.64 496.926H456.393V522.77H441.256C415.228 522.77 410.244 512.248 410.244 482.528V428.625H399.168V402.782C410.059 399.644 412.274 386.537 412.09 375.092H439.779C439.779 387.645 436.641 400.382 426.857 402.782H456.393V428.625ZM498.495 400.936C520.831 400.936 533.199 413.304 533.199 443.024V468.314H491.48V482.528C491.48 495.08 492.403 498.772 498.495 498.772C504.587 498.772 505.51 495.08 505.51 482.528V475.697H533.199V482.528C533.199 512.248 520.831 524.615 498.495 524.615C476.159 524.615 463.791 512.248 463.791 482.528V443.024C463.791 413.304 476.159 400.936 498.495 400.936ZM505.51 449.854V443.024C505.51 430.471 504.402 426.779 498.495 426.779C492.403 426.779 491.48 430.471 491.48 443.024V449.854H505.51ZM589.96 400.936C606.943 400.936 610.081 413.304 610.081 439.332V486.219C610.081 512.248 606.943 524.615 589.96 524.615C577.776 524.615 571.315 515.939 568.362 509.294V559.689H540.672V402.782H568.362V416.257C571.315 409.612 577.776 400.936 589.96 400.936ZM582.391 488.065V437.486C582.391 428.625 579.991 426.779 575.377 426.779C570.762 426.779 568.362 428.625 568.362 437.486V488.065C568.362 496.926 570.762 498.772 575.377 498.772C579.991 498.772 582.391 496.926 582.391 488.065ZM716.433 505.048C716.433 512.801 716.433 516.862 718.279 522.77H694.281C689.666 520.001 688.743 512.617 688.743 509.294C685.79 515.939 679.329 524.615 667.145 524.615C650.163 524.615 647.024 512.248 647.024 486.219V402.782H674.714V488.065C674.714 496.926 677.114 498.772 681.729 498.772C686.343 498.772 688.743 496.926 688.743 488.065V402.782H716.433V505.048ZM773.193 400.936C790.176 400.936 793.314 413.304 793.314 439.332V486.219C793.314 512.248 790.176 524.615 773.193 524.615C761.01 524.615 754.549 515.939 751.595 509.294V559.689H723.906V402.782H751.595V416.257C754.549 409.612 761.01 400.936 773.193 400.936ZM765.625 488.065V437.486C765.625 428.625 763.225 426.779 758.61 426.779C753.995 426.779 751.595 428.625 751.595 437.486V488.065C751.595 496.926 753.995 498.772 758.61 498.772C763.225 498.772 765.625 496.926 765.625 488.065ZM247.208 685.528V646.024C247.208 616.304 259.576 603.936 281.912 603.936C304.248 603.936 316.616 616.304 316.616 646.024V685.528C316.616 715.248 304.248 727.615 281.912 727.615C259.576 727.615 247.208 715.248 247.208 685.528ZM274.897 685.528C274.897 698.08 275.82 701.772 281.912 701.772C288.003 701.772 288.926 698.08 288.926 685.528V646.024C288.926 633.471 287.819 629.779 281.912 629.779C275.82 629.779 274.897 633.471 274.897 646.024V685.528ZM373.93 603.936C390.359 603.936 393.497 616.304 393.497 642.332V649.716H365.808V640.486C365.808 632.179 363.408 629.779 358.793 629.779C354.178 629.779 351.779 632.179 351.779 640.486V725.77H324.089V605.782H351.779V619.257C354.732 612.612 361.193 603.936 373.93 603.936ZM476.775 655.808C490.804 666.145 499.849 674.267 499.849 692.911C499.849 713.402 490.066 727.615 465.884 727.615C441.701 727.615 430.441 717.094 430.441 683.682H458.131C458.131 698.08 460.715 701.772 465.884 701.772C471.052 701.772 472.16 698.08 472.16 692.911C472.16 687.374 470.314 683.497 453.516 671.867C442.071 663.93 430.441 656.361 430.441 636.794C430.441 618.15 440.594 603.936 463.853 603.936C487.112 603.936 498.003 618.15 498.003 644.178H470.314C470.314 633.471 468.099 629.779 463.853 629.779C459.607 629.779 458.131 633.471 458.131 636.794C458.131 643.07 462.376 645.286 476.775 655.808ZM556.61 603.936C573.593 603.936 576.731 616.304 576.731 642.332V725.77H549.041V640.486C549.041 631.625 546.642 629.779 542.027 629.779C537.412 629.779 535.012 631.625 535.012 640.486V725.77H507.323V578.092H535.012V619.257C537.966 612.612 544.426 603.936 556.61 603.936ZM653.612 708.048C653.612 715.801 653.612 719.862 655.458 725.77H631.461C626.846 723.001 625.923 715.617 625.923 712.294C622.969 718.939 616.508 727.615 604.325 727.615C587.342 727.615 584.204 715.248 584.204 689.219V605.782H611.893V691.065C611.893 699.926 614.293 701.772 618.908 701.772C623.523 701.772 625.923 699.926 625.923 691.065V605.782H653.612V708.048ZM718.31 631.625H699.851V685.528C699.851 698.08 703.543 699.926 710.557 699.926H718.31V725.77H703.173C677.145 725.77 672.161 715.248 672.161 685.528V631.625H661.085V605.782C671.977 602.644 674.192 589.537 674.007 578.092H701.697C701.697 590.645 698.559 603.382 688.775 605.782H718.31V631.625ZM824.587 708.048C824.587 715.801 824.587 719.862 826.433 725.77H802.436C797.821 723.001 796.898 715.617 796.898 712.294C793.944 718.939 787.483 727.615 775.3 727.615C758.317 727.615 755.179 715.248 755.179 689.219V605.782H782.869V691.065C782.869 699.926 785.268 701.772 789.883 701.772C794.498 701.772 796.898 699.926 796.898 691.065V605.782H824.587V708.048ZM881.348 603.936C898.331 603.936 901.469 616.304 901.469 642.332V689.219C901.469 715.248 898.331 727.615 881.348 727.615C869.164 727.615 862.704 718.939 859.75 712.294V762.689H832.061V605.782H859.75V619.257C862.704 612.612 869.164 603.936 881.348 603.936ZM873.779 691.065V640.486C873.779 631.625 871.38 629.779 866.765 629.779C862.15 629.779 859.75 631.625 859.75 640.486V691.065C859.75 699.926 862.15 701.772 866.765 701.772C871.38 701.772 873.779 699.926 873.779 691.065Z" fill="#0B2595"/>
</svg>
