<svg width="1111" height="1114" viewBox="0 0 1111 1114" fill="none" xmlns="http://www.w3.org/2000/svg">
<path d="M444.394 81.7949C502.866 14.3885 607.48 14.3885 665.952 81.7949L679.186 97.0498C698.234 119.009 727.266 129.585 755.976 125.023L775.907 121.856C863.958 107.866 944.017 175.029 945.549 264.171L945.904 284.823C946.403 313.837 961.811 340.549 986.678 355.506L1004.36 366.143C1080.07 411.684 1098.51 513.201 1044.09 582.41L1042.79 584.039L1029.71 600.212C1011.47 622.759 1006.13 653.107 1015.56 680.529L1022.33 700.206C1051.31 784.451 999.1 874.866 911.646 891.871L891.63 895.763C863.118 901.307 839.479 921.159 829.091 948.284L821.791 967.347C789.886 1050.66 691.608 1086.42 613.622 1043.1L596.048 1033.33C570.627 1019.21 539.717 1019.21 514.297 1033.33L496.724 1043.1C418.738 1086.42 320.46 1050.66 288.555 967.347L281.254 948.284C270.866 921.16 247.227 901.307 218.716 895.763L198.699 891.871C111.246 874.866 59.0329 784.451 88.0166 700.206L94.7861 680.529C104.22 653.107 98.8736 622.759 80.6357 600.212L67.5537 584.039V584.038C11.5518 514.803 29.6751 412.043 105.983 366.143L123.668 355.506C148.534 340.549 163.943 313.837 164.441 284.823L164.796 264.171C166.328 175.029 246.388 107.866 334.438 121.856L354.369 125.023C383.079 129.585 412.111 119.009 431.16 97.0498L444.394 81.7949Z" fill="#00B2FF" stroke="white" stroke-width="62.48"/>
<path d="M467.992 102.265C514.008 49.2179 596.337 49.2179 642.353 102.265L655.587 117.521C681.706 147.63 721.512 162.131 760.878 155.876L780.809 152.71C850.103 141.699 913.108 194.555 914.314 264.708L914.669 285.36C915.352 325.142 936.479 361.767 970.575 382.276L988.259 392.913C1048.31 429.035 1062.57 509.906 1018.5 564.392L1005.42 580.565C980.413 611.481 973.083 653.092 986.018 690.693L992.788 710.369C1015.6 776.668 974.508 847.823 905.684 861.205L885.667 865.097C846.573 872.699 814.161 899.919 799.917 937.111L792.617 956.174C767.508 1021.74 690.166 1049.88 628.793 1015.79L611.219 1006.03C576.363 986.662 533.982 986.662 499.126 1006.03L481.553 1015.79C420.179 1049.88 342.837 1021.74 317.728 956.174L310.428 937.111C296.185 899.919 263.772 872.699 224.678 865.097L204.662 861.205C135.838 847.823 94.7475 776.669 117.557 710.369L124.327 690.693C137.263 653.092 129.932 611.481 104.925 580.565L91.8431 564.392C47.7701 509.906 62.033 429.035 122.086 392.913L139.77 382.276C173.866 361.767 194.993 325.143 195.676 285.36L196.031 264.708C197.237 194.555 260.242 141.699 329.536 152.709L349.467 155.876C388.833 162.131 428.639 147.63 454.758 117.521L467.992 102.265Z" fill="#00B2FF" stroke="#0C2287" stroke-width="29.6572"/>
<path d="M360.342 449.181C374.371 459.518 383.416 467.64 383.416 486.284C383.416 506.775 373.633 520.989 349.451 520.989C325.268 520.989 314.008 510.467 314.008 477.055H341.697C341.697 491.453 344.282 495.145 349.451 495.145C354.619 495.145 355.727 491.453 355.727 486.284C355.727 480.747 353.881 476.87 337.083 465.24C325.638 457.303 314.008 449.734 314.008 430.167C314.008 411.523 324.161 397.309 347.42 397.309C370.679 397.309 381.57 411.523 381.57 437.551H353.881C353.881 426.844 351.666 423.152 347.42 423.152C343.174 423.152 341.697 426.844 341.697 430.167C341.697 436.443 345.943 438.659 360.342 449.181ZM444.509 424.998H426.049V478.901C426.049 491.453 429.741 493.299 436.756 493.299H444.509V519.143H429.372C403.344 519.143 398.36 508.621 398.36 478.901V424.998H387.284V399.155C398.175 396.017 400.39 382.911 400.206 371.466H427.895C427.895 384.018 424.757 396.755 414.974 399.155H444.509V424.998ZM486.611 397.309C508.947 397.309 521.315 409.677 521.315 439.397V464.687H479.597V478.901C479.597 491.453 480.52 495.145 486.611 495.145C492.703 495.145 493.626 491.453 493.626 478.901V472.071H521.315V478.901C521.315 508.621 508.947 520.989 486.611 520.989C464.275 520.989 451.907 508.621 451.907 478.901V439.397C451.907 409.677 464.275 397.309 486.611 397.309ZM493.626 446.227V439.397C493.626 426.844 492.518 423.152 486.611 423.152C480.52 423.152 479.597 426.844 479.597 439.397V446.227H493.626ZM578.076 397.309C595.059 397.309 598.197 409.677 598.197 435.705V482.593C598.197 508.621 595.059 520.989 578.076 520.989C565.893 520.989 559.432 512.313 556.478 505.667V556.062H528.789V399.155H556.478V412.631C559.432 405.985 565.893 397.309 578.076 397.309ZM570.507 484.438V433.859C570.507 424.998 568.108 423.152 563.493 423.152C558.878 423.152 556.478 424.998 556.478 433.859V484.438C556.478 493.299 558.878 495.145 563.493 495.145C568.108 495.145 570.507 493.299 570.507 484.438ZM704.549 501.421C704.549 509.174 704.549 513.235 706.395 519.143H682.397C677.782 516.374 676.859 508.99 676.859 505.667C673.906 512.313 667.445 520.989 655.262 520.989C638.279 520.989 635.141 508.621 635.141 482.593V399.155H662.83V484.438C662.83 493.299 665.23 495.145 669.845 495.145C674.46 495.145 676.859 493.299 676.859 484.438V399.155H704.549V501.421ZM761.309 397.309C778.292 397.309 781.43 409.677 781.43 435.705V482.593C781.43 508.621 778.292 520.989 761.309 520.989C749.126 520.989 742.665 512.313 739.712 505.667V556.062H712.022V399.155H739.712V412.631C742.665 405.985 749.126 397.309 761.309 397.309ZM753.741 484.438V433.859C753.741 424.998 751.341 423.152 746.726 423.152C742.111 423.152 739.712 424.998 739.712 433.859V484.438C739.712 493.299 742.111 495.145 746.726 495.145C751.341 495.145 753.741 493.299 753.741 484.438ZM235.324 681.901V642.397C235.324 612.677 247.692 600.309 270.028 600.309C292.364 600.309 304.732 612.677 304.732 642.397V681.901C304.732 711.621 292.364 723.989 270.028 723.989C247.692 723.989 235.324 711.621 235.324 681.901ZM263.013 681.901C263.013 694.453 263.936 698.145 270.028 698.145C276.12 698.145 277.043 694.453 277.043 681.901V642.397C277.043 629.844 275.935 626.152 270.028 626.152C263.936 626.152 263.013 629.844 263.013 642.397V681.901ZM362.046 600.309C378.475 600.309 381.614 612.677 381.614 638.705V646.089H353.924V636.859C353.924 628.552 351.524 626.152 346.909 626.152C342.295 626.152 339.895 628.552 339.895 636.859V722.143H312.205V602.155H339.895V615.631C342.848 608.985 349.309 600.309 362.046 600.309ZM464.891 652.181C478.92 662.518 487.966 670.64 487.966 689.284C487.966 709.775 478.182 723.989 454 723.989C429.818 723.989 418.557 713.467 418.557 680.055H446.247C446.247 694.453 448.831 698.145 454 698.145C459.168 698.145 460.276 694.453 460.276 689.284C460.276 683.747 458.43 679.87 441.632 668.24C430.187 660.303 418.557 652.734 418.557 633.167C418.557 614.523 428.71 600.309 451.969 600.309C475.228 600.309 486.12 614.523 486.12 640.551H458.43C458.43 629.844 456.215 626.152 451.969 626.152C447.724 626.152 446.247 629.844 446.247 633.167C446.247 639.443 450.492 641.659 464.891 652.181ZM544.726 600.309C561.709 600.309 564.847 612.677 564.847 638.705V722.143H537.158V636.859C537.158 627.998 534.758 626.152 530.143 626.152C525.528 626.152 523.128 627.998 523.128 636.859V722.143H495.439V574.466H523.128V615.631C526.082 608.985 532.543 600.309 544.726 600.309ZM641.728 704.421C641.728 712.174 641.728 716.235 643.574 722.143H619.577C614.962 719.374 614.039 711.99 614.039 708.667C611.085 715.313 604.625 723.989 592.441 723.989C575.458 723.989 572.32 711.621 572.32 685.593V602.155H600.01V687.438C600.01 696.299 602.409 698.145 607.024 698.145C611.639 698.145 614.039 696.299 614.039 687.438V602.155H641.728V704.421ZM706.427 627.998H687.967V681.901C687.967 694.453 691.659 696.299 698.674 696.299H706.427V722.143H691.29C665.262 722.143 660.277 711.621 660.277 681.901V627.998H649.202V602.155C660.093 599.017 662.308 585.911 662.123 574.466H689.813C689.813 587.018 686.675 599.755 676.891 602.155H706.427V627.998ZM812.704 704.421C812.704 712.174 812.704 716.235 814.549 722.143H790.552C785.937 719.374 785.014 711.99 785.014 708.667C782.061 715.313 775.6 723.989 763.416 723.989C746.433 723.989 743.295 711.621 743.295 685.593V602.155H770.985V687.438C770.985 696.299 773.385 698.145 777.999 698.145C782.614 698.145 785.014 696.299 785.014 687.438V602.155H812.704V704.421ZM869.464 600.309C886.447 600.309 889.585 612.677 889.585 638.705V685.593C889.585 711.621 886.447 723.989 869.464 723.989C857.281 723.989 850.82 715.313 847.866 708.667V759.062H820.177V602.155H847.866V615.631C850.82 608.985 857.281 600.309 869.464 600.309ZM861.896 687.438V636.859C861.896 627.998 859.496 626.152 854.881 626.152C850.266 626.152 847.866 627.998 847.866 636.859V687.438C847.866 696.299 850.266 698.145 854.881 698.145C859.496 698.145 861.896 696.299 861.896 687.438Z" fill="#0B2595"/>
</svg>
